<?xml version="1.0" encoding="UTF-8"?>
<!DOCTYPE svg PUBLIC "-//W3C//DTD SVG 1.1//EN" "http://www.w3.org/Graphics/SVG/1.1/DTD/svg11.dtd">
<!-- Creator: CorelDRAW 2021 (64 Bit) -->
<svg xmlns="http://www.w3.org/2000/svg" xml:space="preserve" width="160.514mm" height="84.7604mm" version="1.1" style="shape-rendering:geometricPrecision; text-rendering:geometricPrecision; image-rendering:optimizeQuality; fill-rule:evenodd; clip-rule:evenodd"
viewBox="0 0 145646.18 76909.26"
 xmlns:xlink="http://www.w3.org/1999/xlink"
 xmlns:xodm="http://www.corel.com/coreldraw/odm/2003">
 <defs>
  <style type="text/css">
   <![CDATA[
    .fil2 {fill:none;fill-rule:nonzero}
    .fil1 {fill:black;fill-rule:nonzero}
    .fil0 {fill:white;fill-rule:nonzero}
   ]]>
  </style>
   <clipPath id="id0" style="clip-rule:nonzero">
    <path d="M34882.76 23860.9l75863.97 0 0 32202.65 -75863.97 0 0 -32202.65zm0 0z"/>
   </clipPath>
 </defs>
 <g id="Camada_x0020_1">
  <metadata id="CorelCorpID_0Corel-Layer"/>
  <path class="fil0" d="M23902.55 3921.21l630.17 29804.37 -8767.76 170.13 -255.06 -10498.39 -6702.13 420.2 -675.18 9868.04 -8132.6 165.05 1305.44 -30939.68 1645.52 -1985.69 18380.74 -800.21 2570.86 3796.17zm-8432.67 13069.16l-210.06 -8392.65 -5566.82 465.12 -420.11 7507.42 6196.99 420.11zm0 0z"/>
  <path class="fil0" d="M28160.22 170.04l23692.49 0 -380.19 8217.62 -6702.03 295.08 -930.33 24412.68 -8807.77 840.32 210.06 -25293.01 -7042.21 -340.08 -40.02 -8132.6zm0 0z"/>
  <path class="fil0" d="M75413.55 26178.24l465.21 7547.34 -20401.45 0 0 -33725.59 19726.19 630.17 -250.07 7717.48 -10833.39 -125.04 0 4211.3 6997.2 425.1 0 7332.39 -7042.21 -420.2 -40.02 5776.88 11378.54 630.17zm0 0z"/>
  <path class="fil0" d="M95606.3 675.18l9448.02 -420.11 -1225.41 33220.45 -7547.34 295.17 -7757.49 -16445.22 -590.16 15639.93 -8427.68 845.22 250.07 -33515.53 9107.84 0 6662.11 14079.43 80.03 -13699.33zm0 0z"/>
  <path class="fil0" d="M129419.72 1770.56l3201.03 4256.3 -715.19 23482.44 -3291.04 3881.2 -19936.34 460.13 250.07 -33765.6 20491.47 1685.54zm-11848.74 6492.07l340.17 18720.91 5856.82 -1310.43 295.08 -15554.91 -6492.07 -1855.58zm0 0z"/>
  <path class="fil0" d="M136498.32 550.14l9147.86 -295.08 -1135.3 32710.33 -8262.62 885.23 250.07 -33300.48zm0 0z"/>
  <path class="fil0" d="M32605.25 43268.6l380.1 33430.6 -8852.78 -210.15 -675.18 -19056 -4681.5 6997.2 -4381.34 -6742.05 -675.27 18675.81 -8977.82 335.18 460.13 -33725.68 8897.88 125.04 4676.42 7587.36 4511.46 -7542.35 9317.9 125.04zm0 0z"/>
  <path class="fil0" d="M56547.73 69151.77l465.12 7547.43 -20401.45 0 0 -33725.68 19726.28 630.17 -250.16 7717.48 -10833.39 -125.04 0 4211.3 6997.2 425.19 0 7332.3 -7042.21 -420.2 -40.02 5776.88 11378.63 630.17zm0 0z"/>
  <path class="fil0" d="M76740.4 43648.79l9448.02 -420.2 -1225.41 33220.45 -7547.34 295.17 -7757.49 -16445.22 -590.16 15639.93 -8427.68 845.31 250.07 -33515.62 9107.93 0 6662.02 14079.43 80.03 -13699.24zm0 0z"/>
  <path class="fil0" d="M89812.28 43143.57l23692.49 0 -380.1 8217.62 -6702.13 295.08 -930.33 24412.68 -8807.77 840.32 210.06 -25293.01 -7042.21 -340.08 -40.02 -8132.6zm0 0z"/>
  <path class="fil0" d="M138921.27 43058.55l1985.6 2150.65 -295.08 28499.03 -1560.5 2990.97 -18930.97 125.04 -2780.82 -1640.53 -210.15 -29889.49 1345.45 -2110.64 20446.46 -125.04zm-12939.04 7082.22l250.07 19476.12 5691.77 380.19 85.02 -19351.08 -6026.86 -505.23zm0 0z"/>
  <g>
  </g>
  <g style="clip-path:url(#id0)">
   <g>
    <path class="fil1" d="M37411.06 54545.52l245.08 -276.29 152.53 -348.88 -199.98 -347.61 -201.35 -440.08 -336.36 -392.71c0,0 -245.08,-323.84 -245.08,-485.08l0 -1109.17c0,0 123.77,-256.24 152.53,-325.02 31.3,-67.6 183.83,-671.46 183.83,-671.46l153.8 -300.16 0 -1829.26 337.63 -463.94 0 -463.94 152.53 -508.85 0 -323.84c0,0 305.06,23.77 276.29,-140.1 -31.21,-161.24 -183.74,-368.85 -183.74,-368.85l-125.04 -232.56 125.04 -555.22c0,0 31.21,-23.68 31.21,-185.01l0 -832.79c0,-116.23 -123.77,-463.85 -152.53,-556.4 -32.48,-92.55 -322.57,-463.94 -322.57,-463.94l0 -1132.85 201.26 -348.79 0 -255.06 -61.25 -347.61 -136.29 -556.49 0 -556.4c0,0 -77.49,-255.06 0,-323.84 76.22,-68.78 -261.32,-856.56 -261.32,-856.56l-582.71 -996.57 -368.85 -577.63 0 -323.84 213.78 -368.85 0 -556.49 -213.78 -392.62 -613.93 -925.25 0 -242.63c0,0 76.22,-138.74 0,-173.76 -76.31,-33.75 -200.08,-333.82 -200.08,-333.82l-125.04 -577.72 0 -335.09c0,0 77.49,-290.09 0,-313.86 -76.31,-23.77 -428.91,-405.14 -428.91,-405.14l0 -335.09 168.86 -150.08 45.01 -185.01 91.28 -138.83 137.47 0 321.39 -82.48 445.16 -160.06 137.56 -150.08 45.01 -140.01 207.52 -82.57 190.09 0 61.25 -57.53 136.29 -197.53 108.79 -68.78 76.31 -92.55 -213.87 -276.29 -59.98 -276.39 -185.1 -126.22 168.86 -256.33 245.08 -463.94 228.75 -140.01 137.56 -105.07 137.56 -126.31 288.82 -173.76 370.12 -116.33 123.86 -81.21 0 -161.33 245.08 -81.3 183.74 -58.71 245.08 92.46 230.11 126.31 107.52 82.57c45.01,33.75 228.84,91.28 228.84,91.28l353.88 11.25 368.85 -197.63 796.49 -23.77 212.6 -68.69 337.54 -116.33 458.95 0 627.63 58.8 305.15 9.98 642.69 -197.53 522.65 0 458.95 126.22 352.6 0 261.32 -33.75 626.45 23.77 201.26 -185.01 228.84 -116.33 185.1 -173.76 91.28 -160.06 261.32 68.78c0,0 306.33,81.21 353.88,67.51 43.74,-9.98 167.5,-138.83 167.5,-138.83l168.86 -116.23 0 -232.65 201.26 -207.52 152.53 -140.1c0,0 152.62,-33.75 200.08,0 45.01,35.02 397.61,35.02 397.61,35.02l185.1 33.75 245.08 92.55 183.83 -47.55 77.49 -34.93 397.61 -33.75 213.87 -116.33 91.28 -218.86 137.47 -173.76 213.87 -140.01 458.86 -183.83 674 -208.79 92.55 0 213.78 -81.3 228.84 92.55 337.63 159.97 213.78 -23.68 245.08 -67.6 107.52 -161.24 0 -57.53 306.33 -92.55 152.53 183.83 276.39 -183.83 92.55 -92.55 521.38 0 245.08 150.08 368.85 11.25 261.32 33.75 245.08 140.1 306.33 9.98 228.84 82.48 306.33 -23.77 288.91 -68.69 413.85 0 0 -92.55 201.35 -105.07 305.06 -140.01 123.77 81.3 382.64 92.46 352.6 92.55 535.17 47.55 0 -173.85 137.56 -35.02 290.09 0 168.77 68.78 290.18 81.3 167.5 0 92.55 -57.53 92.55 -104.98 245.08 0 123.77 33.75 123.77 -57.53 152.53 -68.78c0,0 290.09,-92.55 353.88,0 60.07,92.55 658.93,290.09 658.93,290.09l0 160.06 337.63 140.01 212.6 105.07 0 82.48 382.64 81.3 321.3 -9.98 353.88 57.53 168.77 0 397.61 -47.55 0 92.55 228.84 173.76 92.55 116.33 123.77 23.77 397.61 9.98 168.86 -140.1 123.77 -173.76 168.77 150.08 153.8 -22.5 200.08 -92.55 200.08 23.77 213.87 -58.8 245.08 -33.75 321.3 47.55 213.87 0 228.75 57.44 276.39 -33.75 490.16 0 92.46 23.77 430.19 33.75 107.52 0 368.85 -81.21 213.87 -105.07 261.32 -11.25 0 -33.75 168.77 -35.02 290.09 -150.08 352.6 0 290.09 11.25 352.6 -82.48 153.8 0 212.6 -68.78 108.79 -33.75 368.85 -68.78 305.15 -33.75 446.34 33.75 200.08 -47.55 428.91 68.78 306.33 81.3 276.29 92.55 153.8 35.02 368.94 57.44 183.74 33.84 123.77 -47.55 290.18 0 213.78 68.78 228.84 82.48 213.78 33.75 276.39 57.53 230.02 -57.53 381.37 126.31 245.08 23.77 353.88 47.55 200.08 104.98 185.01 -9.98 107.61 23.77 382.55 92.55 107.52 23.68 168.86 33.75 382.64 11.34 550.14 -35.02 137.56 58.71 473.92 67.51 277.57 161.33 336.36 92.55 261.32 81.3 368.85 23.68 321.39 33.84 153.8 -207.61 305.06 81.3 123.77 -10.07 277.66 -116.23 107.52 -23.77 152.53 -150.08 0 -197.53 245.08 -150.08 353.88 -23.68 582.62 47.46 107.52 0 566.47 33.75 277.57 -57.53 381.37 -11.25 337.63 -81.21 137.56 -92.55 107.52 -173.85 245.08 -185.01 228.84 -57.53 535.17 140.01 185.01 0c45.01,0 613.93,-58.71 613.93,-58.71l413.94 -115.05 261.32 0 260.05 105.07 230.11 -81.3 76.22 -92.55 213.87 -35.02c0,0 136.29,-81.21 168.77,-9.98 31.3,68.78 91.28,161.33 91.28,161.33l108.79 114.96 473.92 127.58 382.55 -151.26 352.7 -91.28c0,0 76.22,9.98 137.47,0 60.07,-11.25 137.56,-266.4 137.56,-266.4l457.68 -149.99 92.55 -77.58 306.33 -295.08c0,0 -45.01,-23.77 0,-104.98 43.74,-81.3 0,-255.06 0,-255.06l19.96 -140.1 116.33 -232.56 200.08 0 353.88 -81.3 428.82 0 430.19 81.3 137.56 106.25 276.29 -11.25 368.85 23.77 245.08 106.25 353.88 33.75 352.6 150.08 353.88 173.85 260.05 161.24 413.94 92.55 230.02 183.83 107.52 266.31 245.08 81.3 337.63 106.25 261.32 91.28 212.6 -138.83 137.47 0c0,0 213.87,-11.25 261.41,10.07 47.46,21.23 228.75,92.46 288.82,140.01 61.25,47.55 306.33,150.08 306.33,150.08l368.85 104.98 445.16 68.78 230.11 116.33 245.08 -57.53 337.54 -116.33 76.31 -106.25 336.36 -288.82 230.02 -256.33 136.38 -10.07 382.55 -116.23 306.42 81.3 597.69 68.69 185.01 161.33c0,0 260.05,150.08 321.39,197.53 59.98,47.55 337.54,150.08 337.54,150.08l428.91 81.3 321.39 23.77 230.02 23.68 506.4 47.55 412.67 35.02 230.02 67.51 183.83 -57.53 398.88 9.98 337.63 -67.51 457.59 -11.25 277.66 126.31 397.61 47.55 703.94 173.76 719 116.33 152.53 126.31 658.93 151.26 370.12 33.75 183.83 33.75 458.86 126.31 428.91 47.55 370.12 106.25 212.6 126.31 0 207.52 -168.86 116.33 0 92.55 -91.28 116.23 -168.77 150.08 -200.08 173.76 -153.8 23.77 -76.22 300.16 76.22 11.25 137.56 91.28 16.24 68.69 -92.55 242.63 45.01 92.55 -61.25 104.98 -200.08 11.25 -168.77 57.53 -76.31 197.53 -45.01 150.08 0 173.76 -213.78 313.86c0,0 16.24,92.55 16.24,127.58 0,33.75 -168.77,197.53 -168.77,197.53 0,0 -137.56,91.28 -137.56,183.83 0,92.55 77.49,300.07 77.49,300.07l15.06 208.88 45.01 197.53 -76.31 161.33 -213.78 197.53 0 57.53c0,47.46 -245.08,197.53 -245.08,197.53l-45.01 208.79 108.7 242.63 -123.77 266.31c0,0 31.3,265.04 43.83,312.59 16.24,47.55 92.46,218.86 92.46,218.86 0,0 45.01,140.01 108.79,232.56 60.07,92.55 136.29,173.76 136.29,173.76 0,0 168.86,33.75 277.57,92.55 107.61,57.53 212.6,173.76 212.6,207.61 0,34.93 -43.74,208.79 -43.74,208.79l-61.25 140.01 -16.33 197.63c0,0 77.58,126.22 77.58,159.97 0,35.02 -77.58,218.86 -77.58,218.86l-352.6 300.07c0,0 -168.77,47.55 -200.08,82.57 -32.48,33.75 -45.01,140.01 -108.7,197.53 -60.07,57.53 -200.08,323.84 -245.08,368.85 -45.01,47.55 -92.55,92.55 -136.29,218.86 -45.1,126.31 -382.64,416.39 -382.64,416.39l-321.39 161.24 183.83 150.08 121.32 183.83 45.01 185.01 185.01 207.61 200.08 242.54 152.53 82.57 277.66 173.76 183.74 183.83 213.87 127.58 59.98 183.74 -136.29 150.08c0,0 -185.01,68.78 -200.08,116.23l-16.24 47.55c0,0 -185.01,92.55 -230.02,290.09 -43.83,197.53 -91.28,300.07 -91.28,347.61 0,47.55 14.97,185.1 -32.57,256.33 -43.74,67.51 -228.84,241.36 -228.84,241.36l-107.52 82.48 152.62 197.63c0,0 183.74,81.21 183.74,149.99 0,68.78 -91.28,313.86 -91.28,358.87 0,45.01 -213.78,218.86 -213.78,218.86 0,0 -168.86,207.52 -185.1,266.31 -14.97,57.53 -107.52,231.29 -107.52,231.29l107.52 197.63 45.01 126.22c0,0 213.87,-47.46 213.87,-9.98 0,36.29 123.77,335.09 123.77,335.09l261.32 67.51 200.08 290.18 152.53 358.78 45.01 440.17 -76.22 242.63 -76.31 276.29c0,0 -16.24,161.33 0,208.79 15.06,47.55 60.07,255.15 60.07,255.15l61.25 242.54 31.21 266.31c0,0 -31.21,105.07 0,161.33 31.3,57.53 152.62,207.52 152.62,207.52l108.7 208.88 60.07 323.84 137.56 208.79 136.29 288.82 0 266.4c0,0 -60.07,140.01 -60.07,173.76 0,35.02 -76.22,161.33 -76.22,161.33l0 161.24 92.55 197.63 212.51 0c0,0 92.55,-68.78 92.55,-23.77 0,45.01 16.24,160.06 16.24,197.53 0,36.29 -92.55,105.07 -92.55,160.06 0,56.26 -31.21,82.57 0,127.58 31.3,47.46 31.3,218.77 31.3,218.77l76.22 231.38 0 242.54 -31.21 150.08 -107.52 232.56 -137.56 197.53c0,0 -92.55,81.3 -107.52,126.31 -16.24,47.55 -92.55,255.06 -92.55,290.09l0 207.61c0,58.71 15.06,185.01 15.06,185.01 0,0 -200.08,105.07 -212.6,173.85 -16.24,68.69 -16.24,185.01 -16.24,185.01l-261.32 57.53 -152.62 104.98 -45.01 82.57 0 115.05 -168.77 140.01 -91.28 92.55c0,0 -16.24,47.55 -16.24,104.98 0,57.53 -137.56,208.88 -137.56,208.88l61.25 126.31 -16.24 173.76c0,0 -45.01,116.33 -45.01,150.08 0,33.75 -59.98,313.86 -59.98,313.86l-123.86 231.29 -123.77 370.12 -61.25 241.36 -368.85 325.02 -245.08 23.77 -305.15 -58.71 -627.72 140.01 -811.46 -68.78 -627.72 92.55 -228.84 68.78c0,0 -306.33,-58.8 -353.78,-68.78 -45.1,-9.98 -506.4,-92.55 -506.4,-92.55l-183.83 116.33c0,0 92.55,126.31 -185.1,92.46 -276.29,-34.93 -428.82,-68.69 -428.82,-68.69l-290.09 47.46c0,0 -230.11,47.55 -277.66,68.78 -43.74,23.77 -490.16,-68.78 -490.16,-68.78l-136.29 -92.55 -321.3 -9.98 -322.66 57.53c0,0 -228.75,33.75 -276.29,47.55 -45.01,9.98 -368.85,116.23 -368.85,116.23 0,0 -306.33,81.3 -382.64,92.55 -76.31,9.98 -381.37,-58.8 -381.37,-58.8l-321.39 68.78 -446.34 23.77 -183.83 9.98 -245.08 0 -551.41 23.77 -352.6 47.55 31.21 161.33 92.55 116.23 -353.88 197.53 -305.06 91.28c0,0 -306.33,-114.96 -382.64,-114.96 -76.22,0 -550.14,-116.33 -550.14,-116.33l-261.32 -105.07 -844.04 91.28 -702.76 175.12 -796.49 -116.33 -306.33 -104.98 -228.84 -92.55 -413.85 -47.55 -397.61 -35.02 -445.16 -81.21 -398.88 23.68 -473.92 150.08 -16.24 82.57c0,0 -381.37,-82.57 -413.85,0 -31.3,81.21 -245.08,347.52 -245.08,347.52l-290.09 -11.25 -260.14 -183.74 -213.78 -92.55 -152.53 -126.31 -230.11 0c0,0 -212.51,-11.25 -276.29,9.98 -61.25,23.77 -473.92,35.02 -473.92,35.02l-168.77 81.3 -337.63 23.77 -245.08 -33.75 -398.88 -92.55c0,0 -288.82,-106.25 -368.85,-106.25 -78.76,0 -245.08,-23.77 -245.08,-23.77l-123.77 -91.28 -107.52 -161.33 -230.11 -81.3c0,0 -212.6,10.07 -276.39,10.07 -62.52,0 -337.54,-57.53 -337.54,-57.53l-566.47 92.55 -228.84 23.68 -321.3 23.77 -306.33 105.07 -228.84 218.77 -490.16 23.77c0,0 -382.64,-116.23 -446.43,-126.31 -59.98,-11.25 -368.85,-58.71 -368.85,-58.71 0,0 -200.08,-23.77 -260.05,-23.77 -61.25,0 -598.96,-33.75 -598.96,-33.75l-152.53 -126.31 -413.85 -35.02 -185.1 -104.98 -321.39 0 -76.22 126.22 16.24 150.08 -322.57 23.77 -136.29 0 -168.86 106.25 -152.53 33.75 -904.02 0 -446.43 -81.21c0,0 -107.52,-161.33 -200.08,-161.33l-92.46 0 -228.84 11.25 -60.07 -92.55 -230.02 9.98 -397.61 68.78 -430.19 -81.21 -76.22 -161.33 -276.39 57.53 -168.77 35.02 -245.08 -68.78 -152.53 92.46 -201.35 92.55 -321.39 -11.25 -276.29 92.55 -92.55 68.78 -245.08 -11.25 -872.8 149.99 -107.52 82.57 -368.85 9.98 -306.33 35.02 -276.29 23.77 -100.08 104.98 -468.93 -11.25 0 -114.96 -643.87 0 -152.62 -11.25 -136.29 116.23 -382.64 185.1 -445.07 149.99 -277.66 23.77c0,0 -337.54,-23.77 -397.61,33.75 -59.98,57.53 -213.78,150.08 -213.78,150.08 0,0 -123.77,82.48 -136.29,116.23 -16.24,33.84 -92.55,140.1 -92.55,140.1l-123.77 300.07 -230.11 185.1 -276.29 114.96 -337.63 140.1 -458.86 116.23 -566.47 0 -337.63 -92.46 -505.13 0 -168.77 92.46 -123.86 105.07 -321.3 0c-185.1,0 -812.73,150.08 -812.73,150.08l-719 126.22c0,0 -413.85,35.02 -445.16,92.55 -32.48,58.8 -353.88,218.86 -353.88,218.86l-92.46 173.76 -288.91 208.88 -230.02 104.98 -321.39 -116.23 -430.09 -33.84 -413.94 0 -288.82 -126.22 -567.65 0 -305.15 -35.02 -290.09 -150.08 -123.77 -115.05 -382.64 -151.26 -260.05 35.02 -123.77 197.53 -230.11 231.29 -168.77 58.8 -183.83 -58.8 -458.86 68.78 -690.24 0c0,0 -290.09,126.31 -353.88,126.31 -62.52,0 -381.37,-23.77 -381.37,-23.77l-277.57 -91.28 -123.77 -161.24 -382.64 -197.63 -581.44 -23.68 -230.11 0 -566.38 9.98 -413.94 -115.05 -458.86 -11.25 -613.93 58.8 -642.69 0 -430.19 160.06 -337.54 0c0,0 -212.6,-33.75 -276.39,-33.75 -63.79,0 -413.85,23.68 -413.85,23.68l-521.47 0 -306.33 -149.99 -428.82 -266.4 -277.66 -34.93 -168.77 -57.53 -428.91 -33.75 -185.01 -58.8 -352.6 -116.33c0,0 -92.55,-33.75 -185.1,0 -92.55,35.02 -305.06,58.8 -305.06,58.8l-185.1 9.98 -535.17 0 -428.82 11.25 -337.63 -11.25 -382.64 106.34 -368.85 104.98 -228.84 -47.46c0,0 -45.01,-68.78 -108.79,-81.3 -59.98,-11.25 -290.09,-23.77 -337.54,-23.77 -46.28,0 -457.68,160.06 -457.68,160.06l-200.08 0 -430.09 -150.08 -382.64 -33.75 -445.16 -47.46 -627.72 -23.77 -136.29 -23.77 -92.55 -82.57 -352.6 -81.21 -230.02 0 -305.15 -68.78 -230.02 92.46 -92.55 81.3 -336.36 -104.98 -353.88 -33.75 -623.91 0 -430.19 -127.58 -321.3 68.78 -458.95 0 -261.32 -33.75 -245.08 -47.55 -381.37 9.98 -475.1 -47.46 8.71 13.7zm0 0z"/>
   </g>
  </g>
  <path class="fil2" d="M34882.76 23860.9l75863.97 0 0 32202.65 -75863.97 0 0 -32202.65zm0 0z"/>
  <path class="fil0" d="M49256.72 34173.01l2950.96 235.1 -315.04 10818.42 -2926 -135.11 115.05 -4111.21 -1920.54 -65.06 -150.08 4091.25 -2880.91 180.11 85.02 -10988.46 3196.04 0 -150.08 4121.29 1885.61 70.05 109.97 -4216.38zm0 0z"/>
  <path class="fil0" d="M60520.66 34213.03l650.22 705.21 -99.99 9317.99 -510.22 975.24 -6186.92 45.01 -910.28 -540.16 -70.05 -9773.04 440.17 -690.24 6687.06 -40.02zm-4231.26 2315.71l80.03 6367.03 1860.57 125.04 30.03 -6327.02 -1970.63 -165.05zm0 0z"/>
  <path class="fil0" d="M69590.75 42165.51l-715.19 85.02 965.26 1970.63 -235.01 470.2 -2125.7 550.14 -1530.47 -2795.89 -675.27 25.04 -119.95 2495.73 -2800.97 235.1 0 -11013.42 7222.32 440.08 540.16 535.17 14.97 6081.94 -540.16 920.26zm-2370.69 -2315.71l14.97 -3085.97 -1820.55 -180.02 -70.05 3406 1875.63 -140.01zm0 0z"/>
  <path class="fil0" d="M77600.49 31897.32l-1835.52 1780.54 -865.27 -675.18 1430.47 -2195.75 1270.32 1090.39zm1530.56 3601.09l205.07 9658.07 -2865.94 54.99 -85.02 -3431.05 -2190.67 155.07 -220.13 3220.99 -2660.78 54.99 430.09 -10128.18 535.17 -650.22 6011.89 -244.99 840.32 1225.32 0 85.02zm-4786.57 4051.33l2030.7 135.02 -70.05 -2740.9 -1820.55 150.08 -140.1 2455.8zm0 0z"/>
  <path class="fil0" d="M87758.98 42165.51l-715.19 85.02 965.26 1970.63 -235.01 470.2 -2125.7 550.14 -1530.47 -2795.89 -675.27 25.04 -120.05 2495.73 -2800.88 235.1 0 -11013.42 7222.32 440.08 540.16 535.17 14.97 6081.94 -540.16 920.26zm-2370.69 -2315.71l14.97 -3085.97 -1820.55 -180.02 -70.05 3406 1875.63 -140.01zm0 0z"/>
  <path class="fil0" d="M89566.83 34368.1l2990.88 -100.08 -375.11 10698.38 -2700.79 290.09 85.02 -10888.38zm0 0z"/>
  <path class="fil0" d="M100868.52 34213.03l650.22 705.21 -100.08 9317.99 -510.12 975.24 -6186.92 45.01 -910.37 -540.16 -69.96 -9773.04 440.08 -690.24 6687.15 -40.02zm-4231.35 2315.71l80.03 6367.03 1860.57 125.04 30.03 -6327.02 -1970.63 -165.05zm0 0z"/>
 </g>
</svg>
