<?xml version="1.0" encoding="UTF-8"?>
<!DOCTYPE svg PUBLIC "-//W3C//DTD SVG 1.1//EN" "http://www.w3.org/Graphics/SVG/1.1/DTD/svg11.dtd">
<!-- Creator: CorelDRAW 2021 (64 Bit) -->
<svg xmlns="http://www.w3.org/2000/svg" xml:space="preserve" width="257.88mm" height="493.536mm" version="1.1" style="shape-rendering:geometricPrecision; text-rendering:geometricPrecision; image-rendering:optimizeQuality; fill-rule:evenodd; clip-rule:evenodd"
viewBox="0 0 55816.6 106822.74"
 xmlns:xlink="http://www.w3.org/1999/xlink"
 xmlns:xodm="http://www.corel.com/coreldraw/odm/2003">
 <defs>
  <style type="text/css">
   <![CDATA[
    .fil1 {fill:none;fill-rule:nonzero}
    .fil0 {fill:#B40B0B;fill-rule:nonzero}
   ]]>
  </style>
   <clipPath id="id0" style="clip-rule:nonzero">
    <path d="M-0 106822.74l55816.6 0 0 -106822.74 -55816.6 0 0 106822.74z"/>
   </clipPath>
 </defs>
 <g id="Camada_x0020_1">
  <metadata id="CorelCorpID_0Corel-Layer"/>
  <g>
  </g>
  <g style="clip-path:url(#id0)">
   <g>
    <path class="fil0" d="M24289.46 106822.74c-1767.54,-1438.29 -4978.79,-4143.79 -8472.32,-7148.27 -5021.95,-4318.64 -9300,-7985.54 -9506.98,-8148.97 -331.98,-261.88 -482,-221.31 -1272.41,344.19 -1670.71,1195.18 -3348.45,2330.67 -5037.75,3409.29l0 -13784.82c1503.24,616.97 2717.75,1073.19 2983.87,1082.11 180.75,6.28 899.28,-633.81 1597.22,-1421.84l0.3 0c2940.6,-3321.2 6441.69,-7953.01 6094.79,-8063.67 -90.67,-28.92 -3678.83,597.45 -7973.59,1392.04l-2702.6 500.05 0 -4199.89c3882.13,-529.7 10225.06,-2190.26 12998.2,-3409.68 1294.48,-569.1 1914.29,-731.04 2498,-652.6 991.74,133.03 6540.1,2696.63 8072.01,3729.54 956.85,645.15 1179.66,910.6 1233.95,1470.15 61.45,631.73 -215.36,962.52 -3731.34,4453.44 -2088.77,2074.16 -5243.24,5264.43 -7009.57,7089.53l-3211.76 3318.54 2590.77 1385.15c8326.13,4451.03 20301.29,9056 35479.83,13643.35 3259.17,985.16 6101.65,1950.07 6316.41,2144.55 214.76,194.47 390.72,575.05 390.72,845.88 0,961.23 -377.09,1114.75 -10766.06,2021.95l-20571.69 0zm-24289.46 -44495.15l0 -6279.92c2532.85,506.85 5541.63,863.09 9096.87,1084.27 4448.07,276.51 6712.81,182.25 7194.8,-299.75 308.41,-308.41 212.68,-608.47 -1110.75,-3481.09 -1144.75,-2485.47 -1451.97,-3365.96 -1466.58,-4205.28 -18.2,-1051.68 -11.93,-1062.13 687.51,-1129.23 640.37,-61.45 906.73,126.77 2866.34,2026.13 4883.83,4734.4 6582.18,6039.02 10252.07,7876.36 947.29,474.23 1984.36,1173.97 2305,1554.87 500.2,594.44 567.6,828.59 474.86,1650.9 -272.03,2412.7 -3025.64,3147.03 -12357.83,3296.16 -3036.08,48.61 -6427.97,5.97 -7537.22,-94.54 -3882.24,-352.02 -7349.95,-1018.45 -10405.07,-1998.88zm0 -10842.1l0 -6916.22c42.75,5.95 80.13,9.03 111.25,8.9 348.39,-1.49 1541.14,-195.97 2650.42,-431.89 5540.31,-1179.06 6045.57,-1216.93 6205.16,-467.39 43.55,204.3 -140.8,1183.51 -409.53,2175.86 -269.04,992.63 -582.51,2791.17 -696.75,3997.09 -260.38,2746.43 -533.6,3771.29 -1176.07,4413.76 -806.51,806.51 -1648.52,671.11 -3604.26,-580.44 -1020.92,-653.34 -2076.41,-1412.29 -3080.21,-2199.67zm0 -12167.96l0 -4635.77 523.47 -91.69c6016.35,-1053.78 10931.51,-2013.32 11073.17,-2161.84 271.72,-285.45 6329.85,-11905.05 7215.39,-13839.62 493.34,-1077.35 512.73,-1244.66 291.12,-2517.09 -196.25,-1127.43 -181.94,-1495.21 83.53,-2130.22 402.95,-964.91 910.3,-1103 2932.85,-798.76 2057.15,309.6 4319.22,1425.43 5779.82,2851.15 1740.1,1698.93 2330.08,3170.88 1905.94,4753.49 -101.71,379.1 -7007.21,6684.78 -11657.2,10644.57 -463.21,394.32 -669.61,657.97 -459.03,585.8 210.88,-72.18 1930.7,-374.64 3821.7,-672.3 7884.72,-1241.69 13308.1,-2273.7 15013.9,-2857.4 2551.09,-873.05 3384.44,-976.25 4263.14,-527.34 1953.36,997.11 10071.02,7134.57 10810.71,8173.13 674.4,947.01 721.82,1566.49 169.43,2208.68 -456.35,530.91 -674.98,590.87 -2828.49,776.69 -1283.73,110.95 -2521.85,260.68 -2751.22,332.87 -229.37,72.18 -3000.28,1479.7 -6157.13,3127.94l-5739.87 2996.38 1300.44 1332.97c4267.04,4372.9 4339.2,10810.11 116.64,10380.31 -1380.39,-140.49 -2896.49,-1298.96 -6725.06,-5137.38 -3583.07,-3592.62 -6275.24,-6047.96 -9438.98,-8608.9 -1968.25,-1593.05 -2350.64,-2118.9 -1919.94,-2637.89 732.55,-882.57 3087.68,-487.06 9362.62,1572.48 3073.65,1008.74 3103.48,1013.8 3638.57,624.27 772.81,-562.84 2630.72,-2900.95 4373.5,-5503.64 1725.77,-2577.32 2086.39,-3340.89 1655.08,-3506.13 -324.21,-124.37 -17964.07,2371.83 -31662.59,4480.28 -1309.05,201.51 -3028.24,472.22 -4991.52,784.95zm0 -7952.46l0 -9830.59c324.06,140.97 644.46,284.69 957.14,429.92 2223.59,1032.91 3216.53,1999.01 4187.99,4074.94 1074.64,2296.66 1066.29,5750.3 -16.71,6730.12 -551.8,499.6 -1508.35,598.62 -2449.38,254.1 -789.69,-289.1 -1694.04,-850.6 -2679.03,-1658.5zm0 -14569.52l0 -7775.31c3913.78,-1837.74 7810.63,-3808.11 9024.99,-4610.38l1061.53 -701.23 106.19 -1555.17c124.67,-1824.19 480.81,-2261.75 1687.01,-2072.36 1728.15,270.84 5234.88,3468.86 7532.74,6869.71 1170.7,1732.63 1397.99,2213.44 1397.1,2956.12 -1.19,1094.95 -566.41,1609.45 -2179.74,1984.38 -611.76,142.29 -2545.42,672.6 -4296.86,1178.17 -4681.29,1351.32 -9382.85,2575.77 -14332.94,3726.08z"/>
   </g>
  </g>
  <polygon class="fil1" points="-0,106822.74 55816.6,106822.74 55816.6,0 -0,0 "/>
 </g>
</svg>
