<?xml version="1.0" encoding="UTF-8"?>
<!DOCTYPE svg PUBLIC "-//W3C//DTD SVG 1.1//EN" "http://www.w3.org/Graphics/SVG/1.1/DTD/svg11.dtd">
<!-- Creator: CorelDRAW 2021 (64 Bit) -->
<svg xmlns="http://www.w3.org/2000/svg" xml:space="preserve" width="99.2506mm" height="99.2506mm" version="1.1" style="shape-rendering:geometricPrecision; text-rendering:geometricPrecision; image-rendering:optimizeQuality; fill-rule:evenodd; clip-rule:evenodd"
viewBox="0 0 12402 12402"
 xmlns:xlink="http://www.w3.org/1999/xlink"
 xmlns:xodm="http://www.corel.com/coreldraw/odm/2003">
 <defs>
  <style type="text/css">
   <![CDATA[
    .fil6 {fill:none;fill-rule:nonzero}
    .fil0 {fill:#FEFEFE}
    .fil1 {fill:#EE3620}
    .fil5 {fill:black;fill-rule:nonzero}
    .fil2 {fill:#201E1D;fill-rule:nonzero}
    .fil4 {fill:#EE3620;fill-rule:nonzero}
    .fil3 {fill:#F04625;fill-rule:nonzero}
   ]]>
  </style>
    <clipPath id="id0" style="clip-rule:nonzero">
     <path d="M9569.35 8096.91l1397.56 0 0 1397.56 -1397.56 0 0 -1397.56zm0 0z"/>
    </clipPath>
 </defs>
 <g id="Camada_x0020_1">
  <metadata id="CorelCorpID_0Corel-Layer"/>
  <circle class="fil0" cx="6201" cy="6201" r="6201"/>
  <g id="_2026792439312">
   <path class="fil1" d="M8109.68 5338.12c3.56,4.67 6.67,9.32 10.25,14.13 -3.57,-4.81 -6.69,-9.46 -10.25,-14.13z"/>
   <path class="fil2" d="M7043.47 9184.26c9.77,-3.11 19.24,-5.75 29.03,-9.01 -1.09,0.46 -2.32,0.92 -3.1,1.24 -4.35,1.56 -9.01,2.8 -13.67,4.35 -4.35,1.09 -8.22,2.34 -12.26,3.42z"/>
   <path class="fil3" d="M7555.37 7405.35c-85.86,-40.67 -174.05,-75.91 -264.73,-104.19 -81.66,-25.45 -164.42,-47.36 -247.95,-65.83 -275.77,-61.79 -558.98,-87.72 -841.86,-81.83 -299.68,6.22 -600.13,46.58 -892.8,115.98 -93.32,21.44 -185.54,46.58 -276.53,73.92 -187.87,56.82 -432.26,116.76 -606.78,242.05 -58.08,41.92 -108.7,90.83 -146.42,149.52 -9.77,14.91 -21.12,26.24 -33.7,34.16 1.56,3.41 3.57,6.67 5.45,9.78 60.87,109.61 131.03,213.33 208.83,310.84 10.56,13.35 21.58,26.7 32.46,39.59 -20.82,16.47 -41.62,33.23 -61.5,50.16 -49.83,42.22 -98.13,85.4 -144.86,130.73 -56.36,75.61 -111.01,152.32 -163.18,231.03 100.91,115.52 211.48,222.81 329.95,321.1 17.69,14.59 35.7,29.04 53.72,43.16 13.36,10.56 27.17,20.66 40.36,30.9 2.49,1.55 4.05,3.57 6.37,5.12 14.44,10.56 29.35,21.59 44.25,32.15 33.39,24.68 67.08,47.66 101.7,70.49 8.22,4.96 15.68,9.77 23.45,15.22 4.35,2.31 8.7,5.11 13.03,8.22 13.35,8.53 26.24,16.77 39.59,24.69 12.12,7.45 24.23,14.44 36.8,21.89 107.92,-152.32 222.81,-299.21 344.87,-439.72 386.75,-447.63 841.38,-835.33 1347.87,-1146.19 1.09,0 1.85,0 3.11,0 187.55,17.24 369.52,52.48 544.51,104.5 -587.22,301.53 -1111.71,708.02 -1549.57,1194.01 -129.79,144.09 -251.84,294.85 -365.5,452.59 0,0 0,0 0.32,0 69.09,29.81 140.05,56.83 211.93,80.75 0.32,0.31 1.09,0.77 1.86,1.09 12.58,4.04 25.94,8.22 39.29,12.58 7.77,2.32 15.99,4.65 24.23,7.91 9.46,2.64 18.94,5.44 28.71,8.23 11.02,3.41 21.89,6.52 33.39,10.1 15.22,3.87 30.58,8.68 46.58,12.57 1.55,0.3 3.57,0.77 5.12,1.55 27.79,6.99 56.04,14.43 84.31,20.34 9.77,2.34 19.26,4.65 29.5,6.67 2.64,0.77 5.9,1.55 8.22,2.02 1.86,0.3 3.11,0.3 4.35,1.09 8.55,1.55 17.23,3.1 25.78,5.12 18.94,4.35 37.26,7.45 56.21,10.56 10.86,2.79 22.35,4.35 33.23,6.21 5.14,0.77 9.47,1.55 14.59,2.79 11.81,1.56 23.44,3.89 35.24,5.45 23.15,4.02 46.28,7.12 70.19,9.46 11.8,1.56 23.6,3.11 35.4,4.66 11.02,0.77 21.89,2.32 32.91,3.1 12.58,1.56 25.47,2.8 38.51,4.04 7.76,0.77 15.99,1.56 24.23,1.87 15.68,1.24 31.35,2.32 47.51,3.57 3.56,0.3 7.91,0.3 11.8,0.77 12.9,0.77 26.24,1.54 39.6,1.86 194.54,-218 405.55,-420.94 631.15,-607.25 375.43,-309.77 790.46,-573.72 1237.17,-781.63 1.24,0.79 2.01,1.56 3.27,2.34 5.42,3.89 10.55,8.23 15.98,12.57 10.56,-12.57 20.81,-25.47 31.05,-38.04 64.28,-80.73 123.59,-165.67 176.54,-254.95 -202,-164.89 -421.4,-319.08 -659.11,-431.49z"/>
   <path class="fil3" d="M7069.39 9176.48c-4.35,1.56 -9.01,2.8 -13.67,4.35 -4.35,1.09 -8.22,2.34 -12.26,3.42 9.77,-3.11 19.24,-5.75 29.03,-9.01 -1.09,0.46 -2.32,0.92 -3.1,1.24zm1332.18 -665.32c-37.72,-44.56 -76.86,-87.72 -117.37,-129.95 -1.1,-0.77 -2.34,-2.01 -3.42,-3.11 -613.92,265.04 -1169.47,640.64 -1640.55,1101.47 1.24,0 2.34,-0.3 3.89,-0.3 0,0 0.46,0 0.76,-0.47 11.03,-1.24 22.83,-3.1 34.16,-4.34 11.8,-1.56 23.13,-3.89 34.94,-5.45 3.89,-1.24 7.91,-2.01 11.8,-2.34 11.81,-2.01 24.23,-3.87 36.49,-6.66 18.48,-3.11 37.27,-6.21 55.76,-10.56 9,-2.02 17.54,-3.57 26.54,-5.44 0.46,-0.47 0.77,-0.47 1.56,-0.47 4.81,-0.77 9.46,-2.01 13.81,-3.1 8.55,-1.55 17.71,-3.89 26.24,-5.9 11.8,-2.8 23.13,-5.44 34.46,-8.22 8.4,-2.04 16.62,-3.89 24.85,-5.91 0.77,0 1.09,-0.31 1.55,-0.31 6.99,-2.02 13.67,-3.57 20.81,-5.11 0,0 0.31,-0.47 0.79,-0.47 18.01,-4.66 35.7,-9.78 53.24,-14.43 11.5,-3.57 22.37,-6.69 33.39,-10.1 17.23,-5.14 33.69,-9.95 50.14,-15.37 14.91,-4.67 29.5,-9.32 43.95,-14.44 169.09,-56.37 331.17,-128.88 484.58,-215.05 1.55,-1.09 3.42,-2.32 5.45,-3.1 14.12,-7.76 27.78,-16.46 41.91,-23.9 5.6,-3.42 10.57,-6.69 16.16,-10.1 11.33,-6.69 22.67,-13.36 34.15,-20.82l19.57 -11.8c10.25,-6.21 20.34,-13.2 30.58,-19.87 6.22,-3.89 11.81,-7.45 18.02,-11.33 15.68,-10.72 31.36,-21.28 46.73,-31.38 17.23,-12.1 34.48,-23.9 51.39,-36.02 15.99,-11.8 32.15,-23.59 47.82,-35.24 2.32,-1.55 4.35,-3.57 6.22,-5.12 15.36,-11.32 30.73,-23.13 45.96,-34.78 15.67,-12.58 31.83,-25.94 47.5,-38.81 0,0 0.77,0 0.77,-0.47 128.58,-106.05 247.98,-223.9 355.73,-350.75 0,0 0,-0.46 -0.31,-0.46z"/>
   <path class="fil2" d="M6131.42 9504.26c-3.11,0 -6.22,0 -9.32,0 -0.77,0 -1.55,0 -2.79,-0.46 -13.36,-0.32 -26.7,-1.09 -39.6,-1.86 -3.89,-0.47 -8.23,-0.47 -11.8,-0.77 -16.16,-1.25 -31.83,-2.34 -47.51,-3.57 -8.23,-0.31 -16.47,-1.1 -24.23,-1.87 -13.05,-1.24 -25.93,-2.47 -38.51,-4.04 -11.02,-0.77 -21.89,-2.32 -32.91,-3.1 -11.8,-1.55 -23.6,-3.1 -35.4,-4.66 -23.9,-2.34 -47.03,-5.44 -70.19,-9.46 -11.8,-1.56 -23.43,-3.89 -35.24,-5.45 -5.12,-1.24 -9.46,-2.01 -14.59,-2.79 -10.87,-1.86 -22.37,-3.42 -33.23,-6.21 -18.94,-3.11 -37.26,-6.21 -56.21,-10.56 -8.55,-2.02 -17.23,-3.57 -25.78,-5.12 -1.24,-0.79 -2.49,-0.79 -4.35,-1.09 -2.32,-0.47 -5.59,-1.25 -8.22,-2.02 -10.25,-2.02 -19.73,-4.34 -29.5,-6.67 -28.27,-5.91 -56.52,-13.36 -84.31,-20.34 -1.55,-0.77 -3.57,-1.25 -5.12,-1.55 -16.01,-3.89 -31.36,-8.7 -46.58,-12.57 -11.5,-3.57 -22.37,-6.69 -33.39,-10.1 -9.77,-2.8 -19.26,-5.6 -28.71,-8.23 -8.23,-3.26 -16.46,-5.59 -24.23,-7.91 -13.35,-4.36 -26.7,-8.55 -39.29,-12.58 -0.77,-0.31 -1.54,-0.77 -1.86,-1.09 -71.87,-23.92 -142.84,-50.93 -211.93,-80.75 -0.32,0 -0.32,0 -0.32,0 -93.47,-40.21 -183.99,-84.46 -271.87,-134.3 -17.69,-10.08 -35.71,-20.34 -53.42,-30.89 -12.57,-7.45 -24.68,-14.44 -36.8,-21.89 -13.35,-7.92 -26.24,-16.16 -39.59,-24.69 -4.34,-3.11 -8.68,-5.91 -13.03,-8.22 -7.77,-5.45 -15.23,-10.26 -23.45,-15.22 -34.63,-22.83 -68.31,-45.81 -101.7,-70.49 -14.89,-10.56 -29.8,-21.59 -44.25,-32.15 -2.32,-1.55 -3.89,-3.57 -6.37,-5.12 -13.2,-10.25 -27,-20.34 -40.36,-30.9 -18.02,-14.12 -36.02,-28.57 -53.72,-43.16 -118.47,-98.29 -229.03,-205.58 -329.95,-321.1 -0.31,-0.3 -0.77,-0.76 -1.09,-1.07 -8.7,-9.48 -16.46,-18.78 -24.68,-28.58 0,0 0.3,-0.46 0.3,-0.46 58.07,-68.46 119.71,-133.84 184,-196.11l0 -0.46c1.55,-1.24 3.56,-2.79 4.65,-4.35 46.73,-45.33 95.03,-88.51 144.86,-130.73 19.88,-16.93 40.69,-33.69 61.5,-50.16 482.09,-382.88 1092.92,-612.37 1757.46,-612.37 86.17,0 170.95,3.89 254.95,11.33 1.09,0 1.85,0 3.11,0 187.55,17.24 369.52,52.48 544.51,104.5 1.55,0.46 2.65,0.46 4.35,0.77 171.73,51.39 336.93,117.86 492.98,199.36 155.42,80.28 302.14,175 438.93,281.96 1.24,0.79 2.01,1.56 3.27,2.34 5.42,3.89 10.55,8.23 15.98,12.57 20.81,16.47 41.15,32.76 61.17,49.7 74.54,62.58 145.19,128.87 212.73,198.58 1.09,1.1 2.32,2.34 3.42,3.11 40.51,42.24 79.65,85.4 117.37,129.95 0.31,0 0.31,0.46 0.31,0.46 -107.75,126.86 -227.15,244.7 -355.73,350.75 0,0.47 -0.77,0.47 -0.77,0.47 -15.67,12.87 -31.83,26.23 -47.5,38.81 -15.23,11.65 -30.6,23.45 -45.96,34.78 -1.87,1.55 -3.9,3.57 -6.22,5.12 -15.67,11.65 -31.83,23.44 -47.82,35.24 -16.92,12.12 -34.16,23.93 -51.39,36.02 -15.37,10.1 -31.05,20.66 -46.73,31.38 -6.21,3.89 -11.8,7.45 -18.02,11.33 -10.23,6.67 -20.33,13.66 -30.58,19.87l-19.57 11.8c-11.48,7.46 -22.82,14.13 -34.15,20.82 -5.59,3.41 -10.56,6.67 -16.16,10.1 -14.13,7.45 -27.79,16.14 -41.91,23.9 -2.02,0.77 -3.9,2.01 -5.45,3.1 -153.41,86.17 -315.49,158.68 -484.58,215.05 -14.44,5.12 -29.04,9.77 -43.95,14.44 -16.46,5.42 -32.91,10.23 -50.14,15.37 -11.02,3.41 -21.89,6.52 -33.39,10.1 -17.54,4.65 -35.24,9.77 -53.24,14.43 -0.47,0 -0.79,0.47 -0.79,0.47 -7.14,1.54 -13.82,3.09 -20.81,5.11 -0.46,0 -0.77,0.31 -1.55,0.31 -8.23,2.02 -16.46,3.87 -24.85,5.91 -11.33,2.79 -22.67,5.42 -34.46,8.22 -8.53,2.01 -17.69,4.35 -26.24,5.9 -4.35,1.09 -9,2.32 -13.81,3.1 -0.79,0 -1.1,0 -1.56,0.47 -9,1.86 -17.54,3.41 -26.54,5.44 -18.48,4.35 -37.27,7.45 -55.76,10.56 -12.26,2.79 -24.68,4.65 -36.49,6.66 -3.89,0.32 -7.91,1.1 -11.8,2.34 -11.81,1.56 -23.14,3.89 -34.94,5.45 -11.33,1.24 -23.13,3.1 -34.16,4.34 -0.3,0.47 -0.76,0.47 -0.76,0.47 -1.55,0 -2.65,0.3 -3.89,0.3 -10.56,1.55 -21.12,3.11 -31.36,4.35 -12.12,1.56 -23.92,3.11 -35.71,4.66 -10.56,0.77 -21.59,2.32 -32.93,3.1 -12.57,1.56 -25.45,2.8 -38.04,4.04 -8.22,0.77 -16.14,1.56 -24.37,1.87 -15.68,1.24 -31.83,2.32 -47.52,3.57 -3.41,0.3 -7.46,0.3 -10.87,0.3 -2.79,0.47 -5.59,0.47 -8.22,0.47 -14.91,1.07 -29.5,1.86 -44.72,2.32 -14.58,0.77 -29.81,1.25 -44.72,1.55l-4.34 0c-5.9,0.46 -11.81,0.46 -17.23,0.46 -17.39,0.31 -34.16,0.31 -51.39,0.31 -16.92,0 -33.85,0 -50.62,-0.31 -5.9,0 -11.33,0 -17.23,-0.46l-4.82 0c-14.89,-0.3 -29.8,-0.77 -44.71,-1.55zm3428.45 555.23c-0.79,-10.87 -1.86,-21.89 -2.64,-32.45 -1.25,-11.33 -2.49,-22.67 -3.57,-34 0,0 0,-0.94 0,-0.94 -1.24,-12.11 -2.8,-24.53 -3.87,-37.1 -0.79,-7.92 -2.04,-15.68 -2.8,-24.69 -1.55,-11.02 -3.11,-21.89 -4.66,-33.23 -1.56,-13.35 -3.57,-27.02 -5.6,-40.37 -3.87,-29.34 -9,-59.15 -14.12,-88.96 -2.34,-14.91 -5.44,-29.35 -7.77,-44.57 -2.79,-14.12 -5.9,-29.03 -8.22,-43.47 -2.79,-12.57 -5.9,-25.47 -8.23,-38.04 -8.68,-41.92 -18.94,-83.38 -29.5,-124.83 -6.67,-27.8 -14.12,-55.28 -21.89,-82.3 -4.02,-15.22 -8.22,-30.59 -13.35,-45.81 -7.15,-25.45 -15.37,-50.92 -23.6,-76.39 0,-0.31 0,-0.77 -0.3,-1.09 -4.36,-13.05 -8.71,-25.93 -13.06,-38.82 -4.19,-13.66 -9.31,-26.7 -14.12,-39.9 -4.2,-13.35 -9.01,-27.02 -14.13,-39.59 -9.78,-27.03 -19.88,-52.94 -30.11,-79.05 -10.26,-25.92 -20.82,-52.17 -31.84,-77.62 -5.9,-13.36 -11.33,-25.47 -17.23,-38.35 -74.52,-170.34 -163.51,-332.9 -265.19,-486.31 9.47,-13.81 18.01,-27 27.17,-40.84 7,-11.33 13.98,-22.67 21.12,-34 38.82,-62.73 76.09,-126.54 111.02,-192.22 5.42,-9.78 10.56,-20.49 16.14,-30.59 5.42,-10.25 10.56,-20.81 15.68,-30.58 19.88,-39.6 38.81,-78.72 57.13,-119.1 5.91,-12.42 11.5,-25.47 16.93,-38.35 5.9,-12.42 11.33,-25.78 17.23,-38.66 11.02,-25.47 21.58,-51.39 31.84,-77.64 10.23,-26.24 20.33,-52.48 30.11,-78.72 5.12,-13.2 9.93,-26.24 14.13,-39.44 4.81,-13.35 9.93,-26.7 14.12,-40.37 4.35,-12.57 8.7,-25.47 13.06,-38.35 0.3,-0.77 0.3,-1.24 0.3,-1.24 4.81,-14.91 9.47,-29.81 14.13,-44.57 2.32,-7.14 4.35,-14.58 6.67,-21.57 0.79,-3.57 2.02,-6.69 2.8,-10.26 2.34,-6.67 3.87,-12.88 5.9,-19.56 0.77,-3.11 1.86,-5.91 2.64,-9.01 0,-0.31 0.46,-0.77 0.46,-0.77 1.1,-5.44 2.8,-11.03 4.35,-16.77 3.89,-13.36 7.77,-27.02 11.35,-40.84 2.01,-6.67 3.87,-13.67 5.42,-20.34 1.56,-6.99 3.57,-14.12 5.12,-21.12 5.6,-20.34 10.56,-41.15 15.37,-62.25 2.65,-11.33 5.45,-23.13 8.23,-34.48 1.86,-9.31 3.89,-18.79 5.9,-27.79 1.1,-5.44 2.34,-11.03 3.41,-15.99 1.25,-5.6 2.5,-10.56 3.27,-16.16 0.3,-1.85 0.77,-3.87 1.55,-5.89 1.09,-7.46 2.64,-14.74 3.87,-22.2 0.79,-3.57 1.56,-7.15 2.34,-11.02 0.46,-3.57 1.24,-6.99 2.01,-11.03 2.34,-14.43 5.44,-29.34 7.77,-43.78 2.32,-12.57 4.35,-25.47 6.36,-38.04 0.77,-3.11 1.09,-6.69 1.56,-9.78 2.32,-13.67 4.35,-27.79 6.2,-41.46 1.25,-5.9 1.56,-11.33 2.34,-16.92 1.24,-7.77 2.47,-15.22 3.26,-22.98 1.09,-6.69 1.85,-13.35 2.32,-19.56 0.31,-1.71 0.31,-3.27 0.79,-4.05 0.3,-3.41 1.07,-6.99 1.55,-10.56 0.3,-4.35 0.76,-8.22 1.24,-12.11 0.31,-3.87 0.77,-8.22 1.56,-12.12 1.07,-9.77 1.85,-19.24 3.1,-28.55 0.31,-3.11 0.77,-5.91 0.77,-8.7 0,0 0,-0.31 0,-1.09 1.09,-11.33 2.32,-22.37 3.57,-33.7 0.77,-11.02 1.85,-21.58 2.64,-32.14l0 -1.24c0.77,-9.01 1.55,-18.02 2.01,-27.02l-499.8 0c-1.09,16.92 -2.64,32.91 -4.66,49.37 -2.01,20.03 -4.35,39.14 -6.67,58.69 -0.77,4.35 -1.25,8.7 -1.55,12.57 -0.47,1.25 -0.47,2.34 -0.77,3.57 -1.56,14.13 -3.57,28.1 -5.59,41.92 -2.65,19.57 -5.75,39.12 -9.32,57.92 -3.11,19.56 -6.69,38.81 -10.26,57.6 -0.3,1.09 -0.3,2.65 -0.77,3.42 -2.79,16.14 -6.21,32.13 -9.78,48.27 -0.45,3.42 -1.24,6.69 -1.55,9.78 0,0.31 -0.46,0.77 -0.76,1.56 -3.57,16.46 -7.46,34 -11.33,50.46 -4.05,19.26 -9.16,37.57 -13.83,56.37 -4.65,18.47 -9.77,37.25 -14.91,55.59 -5.12,18.46 -10.23,37.25 -15.98,55.73 -11.03,36.32 -22.37,72.82 -35.4,108.85 -21.89,63.34 -45.81,126.07 -72.2,187.08 -0.32,1.56 -1.09,3.11 -1.86,5.14 -43.63,101.08 -93.02,199.36 -147.51,293.76 -0.46,0 -0.46,-0.46 -0.77,-0.79 -59.62,-64.74 -122.04,-127.31 -186.78,-187.25 -0.77,-1.24 -2.02,-2.01 -3.11,-3.1 -52.63,-48.61 -106.66,-95.64 -162.88,-140.68 -19.87,-16.46 -40.36,-32.44 -60.7,-48.13 -179.32,-138.96 -373.42,-260.38 -579.77,-360.22 -1.24,-0.77 -2.79,-1.55 -4.02,-2.01 -72.82,-35.56 -147.36,-68.48 -223.6,-98.59 -86.17,-34.16 -174.51,-65.05 -264.72,-92.39 -1.25,-0.46 -2.34,-0.46 -3.57,-0.92 -170.18,-51.56 -347.18,-89.28 -527.6,-113.05 -114.12,-14.58 -229.47,-23.59 -346.72,-26.23 -27.48,-0.47 -56.04,-1.25 -84.3,-1.25 -118.93,0 -236.63,6.22 -352.76,18.79 -25.78,2.32 -51.71,5.9 -77.65,8.68 -90.52,12.12 -180.41,27.34 -269.07,46.6 -0.31,0 -0.77,0 -1.24,0.3 -181.51,38.82 -357.28,92.38 -526.37,159.47 -190.2,75.46 -371.08,167.99 -542.5,275.59 0,0 -0.47,0 -0.47,0 0,0.46 0,0.46 0,0.46 -1.07,0.32 -1.55,1.1 -2.64,1.56 -90.21,56.83 -177.31,117.85 -261.31,182.9 -20.34,15.68 -40.84,31.68 -60.7,48.13 -125.14,101.85 -243.63,212.56 -352.78,331.33 0,0.32 -0.31,0.79 -0.31,0.79 -5.59,6.21 -11.01,11.65 -16.14,18.01 -1.55,1.56 -3.11,3.1 -5.12,4.97 -12.11,13.81 -24.69,27.48 -36.8,41.92 -0.46,0 -0.77,0.77 -1.24,1.55 -13.36,14.12 -25.93,29.35 -38.04,44.26 -12.12,14.12 -23.45,28.25 -35.26,42.39 -7.12,8.53 -14.12,17.22 -21.26,26.24 -8.23,10.86 -16.78,21.42 -25.47,32.45 -12.58,15.98 -25.15,32.45 -37.27,48.91 -36.8,49.37 -72.2,99.53 -106.35,150.45 -1.55,2.34 -2.65,4.66 -4.19,6.67 7.76,11.65 15.67,23.77 23.44,34.79 0,0.77 0.46,0.77 0.46,1.24 2.64,4.19 5.91,8.53 9.01,13.21 0,0.46 0.77,1.24 1.09,2.01 0.46,0.77 1.24,1.55 1.7,2.34 2.34,3.1 4.67,6.2 6.69,9.46 18.78,27.34 38.34,53.26 57.59,79.81 0.32,1.25 1.25,1.55 2.02,2.79 4.96,6.69 10.1,13.67 15.22,20.36 3.57,5.11 7.15,9.78 11.02,14.89 1.09,1.55 2.79,3.42 3.89,5.44 3.1,3.89 5.9,7.45 9,11.35 6.69,8.22 13.36,17.22 20.51,25.92 24.22,31.21 49.68,62.58 75.3,92.71 4.97,6.36 10.56,12.57 15.99,18.47 18.78,22.35 38.5,43.78 58.07,65.84 5.14,5.44 10.56,11.63 16.14,17.54 16.77,18.48 34.16,36.8 51.71,54.81 101.24,105.74 209.46,204.49 324.04,295.62 3.57,3.27 7.46,5.91 11.03,8.71 9.32,6.99 18.48,14.44 27.79,21.57 16.16,12.43 32.14,25 49.06,37.11 5.44,4.36 11.03,8.71 16.93,12.58 3.41,3.11 6.99,5.42 10.56,7.76 22.37,16.14 44.26,32.15 66.6,47.36 9.78,6.69 19.72,13.35 29.5,20.03 49.85,33.69 100,66.14 151.86,97.19 2.64,1.56 4.97,3.11 7.45,4.66 15.21,8.55 30.11,17.54 45.5,26.24 86.63,49.68 175.6,95.95 266.74,137.89 59.94,27.32 121.11,53.24 182.75,77.47 17.23,6.2 34.48,13.66 52.17,19.56 3.89,2.02 7.77,3.57 11.8,4.35 18.33,6.99 36.02,13.35 54.04,19.57 33.39,11.8 66.76,22.35 100.91,32.91 10.56,3.41 21.59,6.69 32.15,9.78 3.87,1.55 7.45,2.32 11.33,3.41 12.11,4.05 24.69,7.46 36.95,10.71 15.22,4.67 30.9,9.01 46.58,12.43 0.46,0.46 1.24,0.77 1.55,0.77 9.47,2.32 19.26,5.12 29.03,7.45 9.02,2.34 18.96,5.14 28.27,7.45 8.7,2.04 17.23,3.89 25.94,5.91 18.01,4.65 35.7,8.53 54.18,12.57 72.5,15.99 146.26,29.65 220.79,41.15 138.8,21.12 280.41,33.23 424.04,36.34 25.47,0.77 50.93,1.24 76.55,1.24 248.26,0 489.87,-27.02 722.14,-78.72 19.58,-4.35 39.14,-9 58.85,-13.35 17.71,-4.66 35.7,-8.71 53.26,-13.66 9.16,-2.04 17.39,-4.05 25.62,-6.69 0.31,0 0.77,-0.46 0.77,-0.46 32.15,-7.76 63.5,-17.24 94.87,-26.55 11.33,-3.1 21.59,-6.37 32.61,-9.78 13.67,-3.89 27.02,-8.22 40.37,-12.57 20.03,-6.69 40.05,-13.36 60.08,-20.34 18.01,-6.22 36.02,-12.58 54.03,-19.57 2.02,-0.46 3.89,-0.77 5.91,-2.01 19.56,-6.99 38.81,-14.44 58.07,-21.89 156.2,-60.72 306.03,-132.75 449.49,-215.36 19.26,-10.55 38.04,-21.89 56.99,-33.7 14.91,-8.68 29.8,-17.69 44.25,-26.7 22.35,-13.97 45.18,-28.55 67.08,-43 14.58,-9.48 28.73,-18.79 42.86,-28.58 33.69,-22.67 67.38,-46.58 100.3,-71.26 35.4,-25.47 70.33,-52.17 104.33,-79.97 134.63,-106.83 260.07,-223.88 376.68,-350.43 88.66,153.56 162.72,315.96 221.57,485.99 13.03,36.01 24.37,72.04 35.4,109.3 5.75,18.32 10.86,36.8 15.98,55.12 5.14,18.78 10.26,37.26 14.91,56.06 4.67,18.32 9.78,37.26 13.83,56.04 3.87,16.78 7.76,33.54 11.33,50.78 0.3,0.46 0.76,0.76 0.76,1.7 0.31,3.11 1.1,6.52 1.55,9.78 3.57,15.99 7,31.68 9.78,47.67 0.47,1.24 0.47,2.34 0.77,3.57 3.57,19.26 7.15,38.35 10.26,57.13 3.57,19.57 6.67,38.82 9.32,57.92 2.79,20.03 5.59,39.29 7.91,58.85 2.32,19.09 4.66,38.65 6.67,58.37 2.02,16.31 3.57,32.76 4.66,49.7l499.8 0c-0.46,-9.48 -1.24,-18.48 -2.01,-27.03l0 -1.24z"/>
   <path class="fil3" d="M9461.43 5838.55c-273.73,-39.9 -553.53,-60.7 -837.82,-60.7 -1349.89,0 -2591.41,462.08 -3574.41,1236.71 -35.7,12.57 -71.43,26.24 -106.35,39.9 -201.53,80.27 -397.32,179.8 -580.55,295.32 -95.33,59.93 -188.65,125.31 -278.87,195.02 -25.14,19.87 -45.96,36.01 -64.43,51.23 -124.22,101.08 -242.38,210.69 -350.6,326.21l-8.68 4.66 -23.44 30.13c-3.26,3.57 -6.37,7.15 -9.48,10.25l-2.79 3.1 -14.91 16.93c-9.78,10.56 -19.09,21.12 -28.57,31.99 -1.24,1.55 -2.8,3.25 -3.89,4.81 -11.8,13.2 -22.82,26.24 -32.61,37.87l-3.87 4.82c-12.57,14.43 -24.84,29.34 -37.26,44.25 -6.67,8.22 -15.68,19.09 -24.38,30.9l-3.87 4.66c-7.46,9.46 -14.91,18.78 -22.37,28.57 -12.26,15.37 -24.69,32.14 -39.27,51.39 -20.34,27.79 -41.15,55.91 -61.64,85.25 -92.54,-163.67 -170.95,-336.01 -234.93,-515.33 955.2,-1536.21 2660.05,-2559.43 4604.44,-2559.43 566.11,0 1111.72,86.96 1624.88,247.96 45.02,115.06 84,232.91 115.67,353.54z"/>
   <path class="fil3" d="M9571.68 6679.64c-14.91,0 -30.6,-0.77 -45.82,-0.77 -707.39,0 -1385.13,127.32 -2011.64,359.9 -79.66,-30.59 -160.38,-57.9 -240.82,-82.13 -183.69,-56.06 -374.19,-96.73 -566.1,-121.88 -122.82,-15.69 -246.73,-24.99 -368.76,-27.79 -25.94,-0.77 -56.83,-1.55 -89.44,-1.55 -82.76,0 -166.29,3.1 -249.51,9 777.12,-430.71 1671.92,-676.34 2624.02,-676.34 311.78,0 617.03,27 914.37,77.64 21.58,151.53 33.38,306.18 33.7,463.94z"/>
   <path class="fil3" d="M8459.96 4212.75c-587.22,-523.25 -1362,-841.56 -2210.85,-841.56 -1289.79,0 -2407.72,733.02 -2958.14,1804.83 975.7,-752.27 2199.21,-1200.22 3527.36,-1200.22 570.45,0 1121.5,82.92 1641.64,236.94z"/>
   <path class="fil3" d="M7720.88 4876.83c489.57,0 965,61.02 1419.3,175.75 -53.72,-94.24 -111.79,-186.01 -174.21,-274.04 -658.63,-284.29 -1384.67,-442.51 -2147.65,-442.51 -1477.67,0 -2816.54,591.26 -3793.64,1548.78 -63.97,257.29 -98.44,526.2 -98.44,803.04 0,221.72 21.89,437.86 63.19,647 1044.95,-1486.53 2774.48,-2458.03 4731.45,-2458.03z"/>
   <path class="fil3" d="M8829.19 7083.8c-2.02,13.66 -4.04,26.24 -6.37,38.81l-0.31 2.34c-2.47,12.88 -4.81,25.77 -6.67,38.35l-0.77 3.56 0 0.31 -2.8 15.37c-2.79,14.13 -5.9,28.12 -9.01,42.25l-2.8 12.87 0 0.77c-2.79,13.83 -5.89,27.8 -9.3,41.61l-0.94 3.42 -0.79 4.04c-2.64,12.9 -6.2,26.55 -10.87,45.02l-0.76 2.64c-4.05,15.38 -7.92,30.29 -12.27,45.05l-1.86 7.45c-5.12,18.79 -9.01,33.38 -13.36,45.8l-1.55 4.82c-9.47,33.23 -20.03,65.68 -32.3,99.83 -21.12,61.02 -43.78,120.65 -68.63,177.33 -2.64,6.67 -5.44,13.03 -8.22,19.24 -52.17,-47.82 -105.89,-93.94 -160.39,-138.65 -20.03,-16.46 -41.15,-32.91 -64.75,-51.23 -135.23,-104.98 -278.85,-199.83 -427.6,-283.99 272.34,-80.27 553.52,-140.2 842.33,-177z"/>
   <path class="fil3" d="M7043.47 9184.26c9.77,-3.11 19.24,-5.75 29.03,-9.01 -1.09,0.46 -2.32,0.92 -3.1,1.24 -4.35,1.56 -9.01,2.8 -13.67,4.35 -4.35,1.09 -8.22,2.34 -12.26,3.42z"/>
   <path class="fil4" d="M2622.85 8096.91c-385.99,0 -698.86,312.87 -698.86,698.71 0,386 312.87,698.86 698.86,698.86 385.84,0 698.71,-312.85 698.71,-698.86 0,-385.84 -312.87,-698.71 -698.71,-698.71z"/>
   <path class="fil5" d="M2785.69 7422.45c-21.42,-109.62 -62.1,-293.31 -86.48,-479.16 -24.53,-188.2 -37.11,-394.54 -40.82,-497.01 -2.8,-56.98 -45.66,-92.07 -104.35,-84.31 -47.03,6.06 -78.41,41.3 -76.55,91.29l0.77 42.86c-147.34,26.39 -395,70.8 -653.82,104.49 -282.13,36.8 -592.03,63.04 -746.21,73.45 -64.13,3.72 -105.26,54.49 -97.04,118 7.61,58.85 47.82,91.76 107.29,88.82 90.36,-4.66 229.96,-15.68 385.84,-31.21 21.12,88.19 44.1,209.61 59.15,324.81 19.88,152.78 23.75,310.23 29.19,407.58 6.67,68.48 68.94,105.9 128.87,88.51 102.18,-22.98 307.59,-61.8 500.43,-86.94 190.52,-24.84 389.73,-38.82 489.73,-42.39 64.74,1.07 115.66,-48.61 104.01,-118.78zm-202 -81.36c-118.77,6.05 -272.79,16.61 -418.74,35.55 -145.8,19.09 -307.13,47.36 -425.9,72.35 -3.89,-85.55 -13.97,-199.04 -26.87,-297.96 -14.44,-110.39 -37.11,-229.48 -56.52,-322.64l195.48 -23.13c249.36,-32.61 488,-73.3 642.34,-100.61 6.06,82.91 15.69,174.98 27.03,262.08 15.98,122.19 42.39,269.54 63.18,374.36zm0 0z"/>
   <path class="fil5" d="M2694.05 6138.32c21.58,-111.95 50,-314.88 88.82,-478.68 44.25,-186.95 103.86,-387.4 139.41,-486.14 17.24,-52.02 -9.93,-102.33 -67.69,-115.98 -46.12,-10.87 -87.88,10.87 -103.88,58.23l-14.44 40.52c-106.05,-15.38 -262.4,-45.03 -430.86,-84.93 -182.27,-43.16 -370.62,-102.33 -488.47,-139.89 -66.91,-15.84 -108.54,15.67 -121.73,71.1 -22.04,114.27 -50,314.73 -88.81,478.7 -44.26,186.93 -103.88,387.39 -139.43,486.13 -17.08,52.02 9.46,104.65 67.06,118.32 46.28,10.86 87.89,-11.03 104.5,-60.7l13.97 -38.05c103.73,14.76 262.25,45.03 428.54,84.31 184.61,43.63 372.33,105.13 490.8,140.53 66.91,15.83 108.54,-15.84 122.19,-73.45zm-981.91 -351.84c24.84,-84.31 48.91,-176.06 69.7,-263.8 29.51,-124.67 53.73,-257.9 70.81,-360.99 110.86,36.01 263.96,79.48 404.62,112.71 159.31,37.74 308.67,65.84 419.38,82.15 -24.22,82.13 -48.45,173.89 -69.25,261.62 -29.49,124.52 -53.56,257.75 -73.12,360.37 -109.15,-33.08 -262.1,-76.54 -405.26,-110.39 -156.97,-37.27 -306.17,-65.21 -416.88,-81.68zm0 0z"/>
   <path class="fil5" d="M3832.45 3844.37c43.17,-56.52 27.95,-118.78 -31.2,-154.8 -84.93,-52.79 -252.16,-162.11 -405.08,-278.39 -154.81,-117.71 -312.25,-255.42 -391.44,-327.62 -49.06,-49.22 -112.72,-43.95 -150.91,10.41 -87.73,127.01 -254.02,373.11 -416.28,586.28 -172.35,226.53 -371.71,465.34 -472.63,582.26 -33.54,40.05 -27.32,98.44 14.3,130.12 37.71,28.71 92.83,22.97 122.03,-11.5l26.24 -30.75c92.53,58.54 232.43,152.95 364.56,253.4 152.78,116.45 300.92,246.88 374.52,314.73 48.43,45.96 111.16,45.81 155.57,-12.73 33.08,-43.32 29.65,-93.63 -8.07,-134.3 -77.34,-70.64 -236.63,-209.76 -397.17,-331.81 -126.38,-96.27 -259.15,-188.18 -355.56,-249.68 87.57,-103.25 185.7,-228.23 282.26,-351.51 89.28,59 219.71,146.26 349.98,245.33 150.92,114.9 299.05,245.33 370.78,311.78 48.91,49.21 113.97,42.07 155.58,-12.73 31.66,-41.46 29.65,-93.63 -9.48,-132.29 -77.31,-70.8 -231.49,-208.99 -392.04,-331.03 -128.26,-97.67 -255.42,-185.24 -349.82,-245.16 101.54,-137.41 196.41,-273.89 263.95,-374.51 90.06,77.49 221.72,186.63 338.79,275.6 162.26,123.43 338.96,239.88 427.76,295.62 51.08,26.87 100.45,16.78 133.37,-26.7zm0 0z"/>
   <path class="fil5" d="M4032.19 3731.96c61.02,-50 194.86,-148.9 319.08,-227.62 126.08,-80.12 262.71,-152.63 329.78,-184.15 55.12,-23.75 77.95,-71.89 36.02,-137.88 -25.47,-40.06 -65.38,-45.65 -109.3,-26.24 -49.85,23.29 -139.13,68.63 -235.71,124.37 -64.44,-88.34 -158.83,-219.55 -241.44,-349.67 -110.55,-174.2 -199.52,-345.3 -249.36,-437.38 -35.7,-56.06 -95.95,-62.57 -146.1,-30.89 -31.99,20.33 -81.36,79.8 -141.45,117.83 -58.07,36.96 -95.33,49.22 -133.37,73.45 -48,30.43 -49.23,81.67 -22.53,123.74 22.99,36.02 65.21,54.19 109.94,31.53 39.75,-16.92 95.18,-49.23 158.53,-86.64 15.98,-10.1 31.98,-20.34 44.71,-31.21 51.24,93.94 128.41,233.21 203.4,351.38 79.96,126.23 169.85,254.64 238.8,345.62 -111.64,76.4 -219.4,158.84 -276.38,206.37 -36.17,31.35 -49.53,67.85 -21.59,111.94 40.69,64.13 88.67,64.59 136.95,25.47zm-525.42 -1408.12c35.55,56.06 90.68,63.2 142.69,30.13 54.03,-34.31 69.09,-85.86 33.54,-142.08l-82.61 -130.12c-36.95,-58.07 -88.81,-64.58 -142.85,-30.28 -52.01,33.08 -70.33,84.01 -33.38,142.08l82.61 130.27zm0 0z"/>
   <path class="fil5" d="M5725.55 2996.14c66.3,-18.17 94.4,-77.47 69.4,-141.91 -35.55,-93.63 -101.86,-281.96 -152.63,-467.36 -51.23,-187.56 -92.69,-392.68 -111.64,-498.1 -10.71,-65.83 -65.05,-102.63 -128.56,-82.9 -119.25,40.05 -291.12,104.33 -462.69,151.37 -180.74,49.38 -378.87,88.98 -479.78,106.68 -56.21,10.56 -85.71,55.43 -70.03,112.56 13.82,50.47 51.71,72.04 101.55,65.68l32.75 -6.51c37.9,102.78 88.67,261 131.83,418.9 50.14,183.06 93.15,385.22 109.62,481.48 10.71,65.99 58.83,106.83 129.63,87.41 52.64,-14.27 82.76,-56.97 74.7,-113.81 -16.14,-103.71 -60.09,-317.98 -112.74,-510.2 -41.29,-150.91 -89.42,-300.13 -128.09,-405.1 81.36,-17.38 171.27,-39.44 258.21,-63.34 123.44,-33.7 261.78,-76.55 356.04,-109.62 24.99,118.47 65.2,291.91 100.14,420 53.88,196.72 123.43,396.71 160.07,494.84 24.23,52.32 69.58,74.37 122.21,59.93zm0 0z"/>
   <path class="fil5" d="M6131.71 2959.7c125.92,4.36 306.81,4.2 486.44,20.51 184.15,16.77 386,49.38 484.43,67.85 58.54,10.1 102.01,-21.74 107.6,-83.07 4.51,-49.68 -23.44,-83.07 -74.67,-95.03l-30.59 -5.11c0.31,-107.14 6.05,-275.75 20.96,-438.63 17.08,-188.96 50,-393.29 68.33,-489.24 15.37,-65.21 -17.71,-120.65 -90.84,-127.32 -54.34,-4.97 -97.5,24.53 -112.1,80.27 -18.94,103.1 -52.64,316.75 -70.96,517.51 -14.12,155.88 -21.27,312.54 -21.89,424.34 -82.28,-12.26 -176.53,-23.13 -263.96,-31.05 -127.62,-11.65 -272.02,-20.03 -374.34,-22.2 17.87,-117.53 43.63,-296.08 55.74,-428.38 18.48,-203.25 20.97,-414.88 20.97,-519.68 -1.71,-59.78 -38.97,-94.09 -90.99,-98.75 -70.8,-6.52 -117.85,39.29 -114.58,108.54 -2.02,99.84 -5.9,299.66 -23.29,490.94 -17.71,193.63 -48.28,400.44 -67.23,503.54 -13.36,67.85 24.68,121.42 90.99,124.98zm0 0z"/>
   <path class="fil5" d="M7282.27 3103.64c98.59,35.24 286.46,103.86 462.85,185.7 174.36,80.73 355.56,180.41 438.93,231.97 48.6,30.43 93.78,17.38 127.32,-32.45 28.27,-49.53 13.06,-95.8 -34.3,-123.13 -14.13,-9 -30.44,-19.26 -47.52,-27.18 15.37,-50.29 41,-116.91 69.88,-179.32 41.92,-90.37 98.44,-189.75 125.76,-231.97 39.6,-62.73 14.44,-121.26 -52.32,-152.31 -23.6,-10.88 -46.9,-11.35 -65.84,-4.35l-486.44 -225.31c22.2,-42.07 47.2,-90.51 69.1,-137.86 20.96,-45.2 41.75,-95.8 56.36,-138.65 61.49,31.05 127.17,64.12 193.92,95.02 165.68,76.86 347.18,147.81 436.16,175.91 52.47,16.46 95.33,-2.8 115.05,-56.52 14.28,-53.41 -2.95,-95.33 -59.63,-113.81 -83.68,-28.25 -258.67,-96.27 -415.8,-169.09 -159.29,-73.74 -317.83,-160.38 -399.96,-208.83 -45.5,-31.53 -103.26,-13.97 -128.26,39.9 -20.97,45.2 -6.84,88.34 38.51,114.58l36.64 22.22c-14.59,42.85 -36.17,100.76 -60.09,152.46 -40.99,88.21 -93.47,178.88 -118.78,216.91 -35.55,54.03 -20.96,118.32 43.63,148.29 30.13,13.97 57.77,16.31 83.07,6.99l479.77 222.5c-27.17,47.36 -56.21,104.49 -80.11,156.2 -25.94,55.91 -49.68,112.89 -66.3,165.35 -71.11,-38.19 -147.66,-76.22 -222.96,-111.16 -180.74,-83.68 -373.88,-157.61 -475.73,-191.6 -49.38,-17.71 -90.37,-2.65 -111.34,42.54 -25.93,55.89 -7.28,106.36 48.45,127.02zm0 0z"/>
   <path class="fil5" d="M8419.14 3696.57c94.72,83.06 234.77,197.64 363.32,324.02 131.98,129.65 267.38,282.9 331.81,359.45 38.97,45.02 92.71,47.98 135.87,3.87 34.93,-35.4 34.63,-79.02 2.32,-120.8l-20.34 -23.28c68.16,-82.76 179.49,-209.46 294.23,-326.07 133.07,-135.38 287.86,-272.48 362.86,-335.22 53.26,-40.67 62.73,-104.49 10.4,-156.03 -38.97,-38.2 -90.98,-42.86 -137.71,-8.85 -79.81,67.69 -241.29,211.61 -382.74,355.4 -109.77,111.64 -214.43,228.25 -285.85,314.25 -55.89,-61.48 -121.87,-129.79 -184.45,-191.28 -91.31,-89.74 -197.82,-187.87 -275.44,-254.32 88.18,-79.5 221.41,-201.38 314.42,-296.1 143.16,-145.49 279.33,-307.58 345.62,-388.64 36.5,-47.36 29.35,-97.67 -7.76,-134.14 -50.77,-49.85 -116.13,-44.41 -157.59,11.33 -64.74,76.07 -194.39,228.08 -329.01,365.04 -136.33,138.65 -291.14,279.17 -371.1,347.02 -53.41,44.08 -57.75,109.46 -8.85,154.35zm0 0z"/>
   <path class="fil5" d="M9218.04 4536.99c54.03,89.74 155.72,261.93 240.5,436.92 83.68,172.96 160.71,364.87 192.37,457.58 18.48,54.34 61.64,72.96 119.26,55.73 53.24,-20.49 70.8,-65.99 51.38,-117.07 -5.12,-15.99 -11.33,-34.15 -19.56,-51.23 43.95,-29.19 105.89,-64.44 167.84,-94.4 89.59,-43.32 196.26,-84.31 244.24,-99.69 70.18,-23.44 88.03,-84.77 56.06,-150.91 -11.5,-23.6 -29.2,-38.67 -48.3,-45.18l-233.53 -482.57c43.78,-18.48 93.94,-40.22 140.84,-62.89 44.86,-21.73 92.99,-47.66 131.5,-71.43 27.8,62.89 57.75,130.12 89.74,196.27 79.51,164.42 174.84,334.28 225.91,412.38 30.13,46.12 75.62,58.39 124.84,29.19 44.87,-32.29 58.23,-75.61 25.93,-125.76 -46.73,-75 -138.96,-238.5 -214.43,-394.22 -76.39,-158.07 -144.24,-325.45 -177.16,-415.03 -15.21,-53.26 -71.1,-76.25 -124.52,-50.47 -44.72,21.74 -61.17,63.97 -42.7,113.04l14.28 40.54c-38.5,23.74 -91.92,54.96 -143.15,79.8 -87.57,42.24 -185.7,79.18 -229.33,92.38 -61.79,19.42 -91.14,78.41 -60.25,142.55 14.44,29.8 34.48,49.21 59.79,58.05l230.41 476.06c-51.24,19.56 -109.92,45.33 -161.16,70.03 -55.44,26.85 -109.94,55.89 -156.05,86.01 -30.75,-74.67 -65.84,-152.47 -102.01,-227.31 -86.79,-179.32 -189.42,-358.82 -246.71,-449.81 -26.87,-44.87 -68.18,-59.15 -112.89,-37.42 -55.59,26.87 -73.29,77.49 -43.16,128.88zm0 0z"/>
   <path class="fil5" d="M9815.37 6581.46c7.31,68.48 61.49,105.59 129.04,91.14 97.8,-22.5 294.53,-55.74 485.67,-76.39 193.31,-20.81 402.3,-29.04 509.43,-31.05 66.91,0 112.56,-40.84 102,-115.98 -15.68,-100.93 -55.89,-297.03 -75.76,-480.87 -9.17,-84.92 -16.47,-174.83 -20.34,-255.41 159.77,-22.04 300.58,-44.41 392.04,-59.15 58.39,-11.02 90.21,-47.82 83.55,-109.15 -7.61,-70.8 -54.34,-106.21 -122.19,-94.09 -84.47,13.81 -213.34,34.93 -361.47,55.58l-0.61 -28.57c0.94,-57.29 -38.81,-93.63 -102.48,-86.64 -47.06,4.97 -76.85,39.29 -78.57,89.58 -0.77,14.3 0.94,30.91 0.62,50.01l-202.47 24.22c-285.39,30.75 -583.81,51.08 -728.97,54.82 -66.78,0.15 -109.32,47.67 -102.01,115.98 6.36,58.99 45.96,92.86 105.43,91.29 149.84,-4.35 455.24,-25.3 747.6,-56.99 63.67,-6.82 127.32,-13.66 190.82,-22.97 3.89,80.73 11.03,168.3 19.88,250.75 13.51,124.98 36.34,270.48 54.34,371.08 -120.95,5.91 -298.57,18.02 -433.04,32.45 -202.78,21.89 -411.46,56.37 -513.93,79.35 -55.74,13.2 -84.47,56.83 -78.57,111.01zm0 0z"/>
   <path class="fil5" d="M9797.14 6839.32c-5.6,78.56 -25.32,243.91 -53.26,388.33 -28.25,146.71 -69.1,295.77 -92.39,366.26 -20.49,56.37 -1.07,106.05 75.77,120.81 46.58,9 77.95,-16.31 93.94,-61.49 17.39,-52.17 45.5,-148.29 71.26,-256.81 108.54,13.66 268.77,34.93 420.15,64.13 202.47,39.12 388.01,91.92 489.09,118.62 65.21,12.58 111.49,-26.87 122.82,-85.08 7.15,-37.27 -2.17,-113.97 11.33,-183.84 13.05,-67.55 29.5,-102.95 38.04,-147.2 10.72,-55.89 -25.78,-91.92 -74.69,-101.39 -41.91,-8.07 -84.16,10.41 -98.13,58.38 -15.21,40.52 -29.65,102.94 -45.8,174.68 -3.74,18.63 -7.31,37.26 -8.08,54.03 -103.4,-27.17 -257.74,-66.61 -395.15,-93.15 -146.72,-28.27 -301.68,-50.93 -415.33,-63.2 20.96,-133.68 34.93,-268.61 39.59,-342.67 2.02,-47.98 -15.52,-82.76 -66.76,-92.54 -74.52,-14.44 -107.75,20.18 -112.41,82.15zm1384.98 583.8c-65.2,-12.57 -108.22,22.52 -119.86,83.07 -12.12,62.89 15.21,109.31 80.42,121.88l151.38 29.19c67.54,13.03 107.76,-20.33 119.86,-83.22 11.66,-60.55 -12.87,-108.69 -80.42,-121.73l-151.38 -29.19zm0 0z"/>
   <g>
   </g>
   <g style="clip-path:url(#id0)">
    <g id="_2026792443008">
     <path class="fil4" d="M10268.2 8096.91c-386,0 -698.86,312.87 -698.86,698.71 0,386 312.85,698.86 698.86,698.86 385.84,0 698.71,-312.85 698.71,-698.86 0,-385.84 -312.87,-698.71 -698.71,-698.71z"/>
    </g>
   </g>
   <path class="fil6" d="M9569.35 8096.91l1397.56 0 0 1397.56 -1397.56 0 0 -1397.56zm0 0z"/>
   <path class="fil2" d="M4046.86 9606.11c17.71,14.13 29.81,30.28 36.02,48.45 6.52,18.32 7.76,36.65 3.74,55.27 -4.2,18.96 -12.73,36.65 -25.47,52.79 -14.13,17.71 -31.51,31.06 -52.17,39.75 -20.34,9.01 -42.7,11.81 -67.08,8.07 -24.07,-3.41 -48.13,-14.58 -72.04,-33.54 -34.01,-27 -52.48,-58.22 -55.28,-93.78 -2.95,-35.56 9.62,-71.43 37.89,-107.44 31.36,-39.76 72.97,-66.14 124.83,-79.5 52.17,-13.21 109.62,-12.43 172.65,2.47l3.72 3.11 26.09 77.01 -6.84 8.7c-42.7,-13.66 -78.1,-21.43 -106.2,-23.6 -27.79,-2.01 -52.01,1.56 -72.66,10.56l0.62 6.84c19.87,4.66 37.26,12.88 52.16,24.84zm-133.53 120.5c11.96,9 23.77,12.57 35.41,10.56 11.48,-1.71 22.67,-9.32 33.54,-22.99 22.35,-28.57 21.12,-52.48 -3.74,-72.04 -11.17,-8.7 -26.39,-14.59 -45.33,-18.01l-6.82 8.68c-17.87,22.05 -27.95,40.21 -30.44,54.66 -2.49,14.91 3.26,27.94 17.38,39.14zm0 0z"/>
   <path class="fil2" d="M4331.7 9697.68l117.38 74.54 29.8 16.76 -40.36 62.73 -195.64 127.94 -91.29 67.7 -55.89 -63.35 3.72 -16.77 250.29 -158.37 -77.01 -49.07 -57.13 -28.57 -0.62 -9.93 51.54 -68.94 65.21 45.33zm0 0z"/>
   <path class="fil2" d="M4707.62 10174.05c-20.79,-9.01 -36.47,-21.74 -47.2,-37.89 -10.87,-16.16 -16.62,-33.85 -17.38,-53.42 -0.47,-19.39 3.41,-38.5 11.8,-57.13 9.46,-20.66 23.13,-37.89 40.99,-51.54 17.71,-13.67 38.66,-21.43 62.73,-23.6 24.38,-2.49 50.62,2.49 78.88,14.91 39.27,17.86 64.74,43.47 76.39,77.01 11.48,33.54 8.07,71.11 -10.56,112.41 -21.12,46.9 -55.27,82.91 -102.48,108.69 -46.88,25.62 -102.48,38.66 -167.07,39.12l-4.35 -1.86 -43.47 -68.31 4.35 -9.31c45.02,2.47 81.05,1.4 108.06,-3.11 27.33,-4.66 50.01,-14.13 68.33,-28.58l-2.5 -6.21c-20.33,0.47 -39.11,-3.25 -56.52,-11.17zm100 -149.67c-13.67,-6.21 -26.08,-6.85 -37.27,-1.87 -10.86,4.66 -19.72,14.61 -26.7,29.81 -14.58,33.54 -7.28,56.99 21.74,70.19 12.72,5.9 28.73,8.07 47.82,6.82l4.97 -10.56c11.5,-25.62 16.77,-45.96 15.52,-60.87 -0.92,-14.91 -9.62,-26.08 -26.08,-33.53zm0 0z"/>
   <path class="fil2" d="M5079.99 10320.55c-21.59,-6.99 -38.51,-17.71 -50.93,-32.3 -12.43,-14.91 -20.19,-31.83 -22.98,-50.92 -2.49,-19.42 -0.46,-39.14 6.2,-59 7,-21.43 18.64,-39.9 34.79,-55.28 16.14,-15.21 36.02,-25.15 59.63,-29.81 23.9,-4.97 50.46,-2.64 79.5,6.84 41.3,13.36 69.55,36.02 84.46,68.31 14.91,32.3 15.22,70.19 1.24,113.66 -15.82,48.45 -45.8,87.72 -90.04,118 -43.95,30.59 -97.98,49.7 -162.11,57.16l-4.35 -1.87 -50.92 -63.34 3.11 -9.95c45.02,-2.17 80.88,-6.82 107.44,-14.28 26.39,-7.76 48.13,-19.56 65.21,-35.4l-3.11 -6.84c-19.87,2.96 -38.97,1.25 -57.13,-4.96zm83.22 -159.62c-14.59,-4.5 -27.03,-3.72 -37.26,2.49 -10.41,5.9 -18.32,16.76 -23.6,32.91 -11.18,34.78 -1.7,57.14 28.57,67.08 13.66,4.2 30.13,4.66 49.68,1.24l3.11 -10.56c8.7,-26.85 11.5,-47.51 8.7,-62.1 -2.49,-14.91 -12.27,-25.15 -29.19,-31.05zm0 0z"/>
   <path class="fil2" d="M5568.09 10150.54c35.09,7.45 61.03,22.04 77.64,43.47 16.92,21.11 22.37,45.96 16.14,74.52 -3.72,17.86 -11.65,32.61 -23.59,44.1 -12.12,11.17 -27.8,20.49 -47.2,27.95l-1.26 4.96c17.41,13.36 30.14,27.95 38.51,44.1 8.71,16.16 10.72,35.1 6.21,56.52 -7.45,34.78 -26.08,59.32 -55.89,73.91 -29.5,14.91 -65.51,17.69 -108.06,8.7 -40.21,-8.4 -69.41,-23.6 -87.57,-45.96 -18.32,-22.37 -24.23,-47.83 -18.02,-76.4 4.05,-21.11 13.36,-37.26 27.95,-48.45 14.43,-11.17 33.69,-19.26 57.75,-24.23l1.24 -4.96c-15.37,-12.42 -26.7,-26.7 -34.15,-42.85 -7.14,-16.14 -8.38,-34.48 -3.72,-55.28 6.99,-33.53 24.37,-57.29 52.17,-71.43 27.64,-14.43 61.64,-17.38 101.85,-8.68zm-21.73 66.45c-13.67,-2.8 -25.17,-1.87 -34.16,3.1 -8.7,4.97 -14.13,13.05 -16.14,24.23 -2.49,12.11 -0.32,22.67 6.82,31.66 6.99,9.16 18.32,18.94 34.16,29.2 12.42,-4.97 22.35,-10.56 29.81,-16.77 7.76,-6.22 12.73,-14.44 14.91,-24.84 2.47,-11.5 0.61,-21.43 -5.59,-29.81 -6.22,-8.22 -16.16,-13.83 -29.81,-16.77zm-41.61 154.02c-16.14,2.96 -28.58,7.15 -37.27,12.42 -8.68,5.44 -14.59,14.61 -17.38,27.33 -2.96,12.88 -0.62,24.22 6.82,34.15 7.76,9.63 19.57,16.01 35.4,19.26 16.47,3.42 29.98,2.34 40.37,-3.1 10.25,-5.75 16.77,-13.97 19.26,-24.85 2.47,-12.73 -0.31,-23.74 -8.08,-32.9 -7.91,-9.01 -20.96,-19.88 -39.11,-32.3zm0 0z"/>
   <path class="fil2" d="M5939.64 10258.72c43.01,4.65 74.84,22.19 95.64,52.79 21.13,30.74 28.89,71.74 23.6,122.97 -5.44,56.36 -22.83,98.44 -52.17,126.08 -29.04,27.63 -67.08,39.27 -114.29,34.78 -43.92,-4.66 -76.39,-22.04 -97.5,-52.18 -21.12,-30.58 -29.18,-71.72 -24.22,-123.58 5.74,-55.43 23.29,-97.19 52.79,-125.46 29.34,-28.57 68,-40.37 116.13,-35.4zm-17.39 93.78c-22.82,-2.47 -39.75,1.71 -50.93,12.42 -11.17,10.87 -18.32,29.5 -21.11,55.89 -2.49,27.33 0.61,48.13 9.31,62.12 9.01,13.66 25,21.73 47.82,24.22 22.37,2.17 39.29,-2.17 50.93,-13.05 11.5,-11.17 18.79,-29.8 21.74,-55.89 2.49,-27.64 -1.09,-48.45 -10.56,-62.1 -9.17,-13.67 -24.84,-21.43 -47.21,-23.6zm0 0z"/>
   <path class="fil2" d="M6470.98 10579.61l-49.7 -0.61 3.74 78.88 -4.97 6.82 -80.12 6.21 -4.96 -6.84 1.86 -85.08 -95.03 1.24 -62.73 2.49 -6.82 -8.07 -0.62 -65.2 153.41 -228.56 93.78 -0.62 0 219.86 49.07 -0.62 6.2 8.7 -3.1 71.41zm-212.4 -78.25l78.25 -0.62 -0.62 -105.58 -6.2 0 -71.43 106.2zm0 0z"/>
   <path class="fil2" d="M6739.36 10378.9l6.21 62.72 -149.67 39.14 -8.08 -6.84 -6.21 -62.73 149.67 -37.89 8.08 5.6zm0 0z"/>
   <path class="fil2" d="M6984.89 10220.36l28.58 183.84 27.94 132.29 -101.86 18.62 -16.76 -122.97 -16.77 -90.04 -63.35 28.57 -8.68 -4.36 -14.3 -80.72 149.06 -73.3 16.14 8.08zm0 0z"/>
   <path class="fil2" d="M7287.39 10384.54c-22.04,6.21 -42.22,6.69 -60.85,1.24 -18.33,-5.74 -33.85,-15.82 -46.58,-30.43 -12.73,-14.43 -21.89,-31.68 -27.33,-51.54 -6.21,-21.89 -6.82,-43.63 -1.85,-65.21 4.96,-21.89 15.98,-41.3 32.9,-58.38 16.93,-17.38 40.06,-30.11 69.56,-38.5 42.24,-11.97 78.41,-8.7 108.69,9.92 30.11,18.64 51.54,50.01 63.97,93.79 13.67,49.37 10.56,98.75 -9.31,148.44 -19.57,49.68 -53.88,95.49 -103.1,137.25l-4.34 1.86 -77.65 -25.47 -2.47 -9.93c36.02,-26.87 62.88,-50.93 80.73,-72.04 18.17,-21.12 29.8,-42.85 34.78,-65.21l-6.21 -3.1c-15.37,12.87 -32.29,22.03 -50.93,27.32zm-18.62 -178.86c-14.61,4.19 -24.54,11.65 -29.81,22.35 -5.44,10.87 -5.9,24.23 -1.24,40.37 9.46,35.24 29.8,48.45 60.85,39.75 13.21,-3.74 27.33,-12.12 42.24,-25.47l-3.1 -11.17c-7.92,-26.87 -17.08,-45.66 -27.33,-56.52 -10.41,-11.18 -24.23,-14.3 -41.61,-9.32zm0 0z"/>
   <path class="fil2" d="M7671.22 10101.99c21.12,-8.23 41.15,-10.71 60.24,-7.45 18.94,3.41 35.56,11.65 49.7,24.84 14.43,12.88 25.45,29.03 32.9,48.45 8.71,21.12 11.5,42.85 8.71,65.2 -2.5,22.37 -11.5,43.17 -26.7,62.12 -15.38,18.63 -37.27,33.85 -65.84,45.33 -40.21,15.84 -76.4,16.16 -108.7,1.25 -32.29,-15.22 -56.66,-44.1 -73.27,-86.33 -18.94,-47.2 -21.28,-96.58 -6.84,-148.44 14.59,-51.71 44.1,-100.93 88.81,-147.81l4.35 -1.87 80.12 16.78 3.72 9.93c-33.54,30.28 -58.22,56.98 -73.9,80.11 -15.37,22.83 -24.53,45.35 -27.33,67.7l6.84 3.1c13.66,-14.91 29.34,-25.77 47.2,-32.91zm37.89 176.39c13.66,-5.75 22.52,-14.3 26.7,-25.47 4.5,-11.18 3.74,-24.53 -2.49,-40.37 -13.66,-33.85 -35.4,-45.02 -65.2,-33.53 -13.37,5.42 -26.4,15.52 -39.14,30.43l4.35 10.56c10.25,26.08 21.28,44.08 32.91,54.03 11.5,9.63 25.78,11.02 42.86,4.35zm0 0z"/>
   <path class="fil2" d="M8019.01 9938.44c20.19,-10.23 39.91,-14.58 59,-13.03 19.41,1.24 36.8,7.76 52.17,19.24 15.68,11.18 28.27,26.09 37.89,44.72 10.71,19.88 15.84,40.99 15.52,63.34 -0.46,22.37 -7.28,43.95 -20.49,64.6 -12.87,20.33 -32.91,37.74 -60.23,52.17 -38.51,20.34 -74.54,24.54 -108.07,12.42 -33.08,-11.95 -60.39,-38.04 -81.98,-78.26 -23.59,-45.02 -30.74,-93.93 -21.73,-146.56 8.7,-52.94 32.76,-105.13 72.04,-156.52l4.97 -2.47 80.73 8.68 4.97 9.32c-30.28,33.23 -52.02,62.1 -65.21,86.94 -13.36,24.53 -19.88,48.13 -19.88,70.81l7.46 1.85c11.96,-16.14 26.24,-28.57 42.85,-37.26zm56.52 170.8c13.21,-6.52 21.28,-15.68 24.23,-27.33 2.79,-11.5 0.3,-24.85 -7.46,-39.76 -17.07,-32.29 -39.6,-41.14 -67.69,-26.7 -12.42,6.69 -24.23,18.02 -35.41,34.16l4.97 9.95c13.21,24.84 26.08,41.61 38.51,50.31 12.42,8.38 26.7,8.06 42.85,-0.62zm0 0z"/>
  </g>
 </g>
</svg>
