<?xml version="1.0" encoding="UTF-8"?>
<!DOCTYPE svg PUBLIC "-//W3C//DTD SVG 1.1//EN" "http://www.w3.org/Graphics/SVG/1.1/DTD/svg11.dtd">
<!-- Creator: CorelDRAW 2021 (64 Bit) -->
<svg xmlns="http://www.w3.org/2000/svg" xml:space="preserve" width="48.9368mm" height="48.9368mm" version="1.1" style="shape-rendering:geometricPrecision; text-rendering:geometricPrecision; image-rendering:optimizeQuality; fill-rule:evenodd; clip-rule:evenodd"
viewBox="0 0 1387.13 1387.13"
 xmlns:xlink="http://www.w3.org/1999/xlink"
 xmlns:xodm="http://www.corel.com/coreldraw/odm/2003">
 <defs>
  <style type="text/css">
   <![CDATA[
    .fil0 {fill:white}
   ]]>
  </style>
 </defs>
 <g id="Camada_x0020_1">
  <metadata id="CorelCorpID_0Corel-Layer"/>
  <path class="fil0" d="M656.53 64.36c145.98,-6.14 257.68,25.79 374.12,96.83 18.41,11.25 73.22,51.4 88.91,68.19l39.85 39.38 35.71 43.52c72.75,93.72 120.4,217.45 127.56,343.1 20.54,359.08 -255.81,648 -591.06,667.35 -357.71,20.59 -649.96,-256.75 -667.26,-591.87 -4.9,-94.87 10.4,-191.41 43.52,-270.51 16.02,-38.23 33.07,-72.16 53.32,-103.87 11.38,-17.86 51.1,-72.88 68.02,-89.08l61.03 -57.84c90.27,-80.38 238.25,-139.84 366.28,-145.21zm-656.53 597.88l0 57.45c1.83,7.59 2,29.03 2.94,38.91 13.43,142.48 69.39,274.14 160.47,381.58l39.72 43.86 67.17 58.77c94.7,72.54 200.7,118.66 321.44,136.94l75.69 7.37 57.54 0 73.73 -7.8c110.77,-17.81 206.92,-57.11 296.13,-120.32 20.41,-14.49 29.62,-23.23 46.93,-36.53l43.69 -39.85c80.13,-81.87 150.66,-194.35 180.41,-317.82 5.37,-22.38 10.4,-45.86 13.94,-69.68 1.83,-12.19 3.24,-24.21 4.39,-36.48 0.94,-9.8 1.15,-31.54 2.94,-38.95l0 -65.21c-7.03,-16.41 1.28,-149.68 -97.26,-315.22 -30.13,-50.68 -68.41,-98.88 -108,-138.22 -17.47,-17.35 -27.58,-24.85 -43.86,-39.72 -11.17,-10.23 -33.33,-26.13 -46.46,-35.63 -83.45,-60.44 -188.72,-101.78 -292.89,-117.89l-73.69 -7.8 -57.58 0c-7.97,1.83 -28.98,2.05 -38.87,2.94 -160.25,14.54 -311.17,87.03 -423.95,198.78 -7.59,7.5 -13.17,14.62 -20.5,22.04 -16.45,16.71 -42.58,48.97 -56.13,68.41 -68.96,98.96 -112.86,209.78 -124.62,332.4 -0.94,9.59 -0.94,30.43 -3.32,37.68z"/>
  <path class="fil0" d="M400.29 433.79l269.91 269.4 -251.08 251.59 157.99 157.82 89.5 -89.33c11.04,-9.38 53.58,-54.21 70.24,-69.85l45.26 -45.31c4.35,-4.09 8.06,-8.31 12.62,-12.91 4.6,-4.6 8.4,-7.5 12.74,-12.66l140.65 -141.07c6.95,-6.18 35.89,-34.78 38.61,-39.64l-320.93 -320.25c-12.19,-12.4 -102.67,-104.34 -108.51,-106.94l-137.79 137.79c-5.58,5.63 -16.41,14.06 -19.22,21.35z"/>
 </g>
</svg>
